<?xml version="1.0" encoding="UTF-8"?>
<svg width="307px" height="295px" viewBox="0 0 307 295" version="1.1" xmlns="http://www.w3.org/2000/svg" xmlns:xlink="http://www.w3.org/1999/xlink">
    <!-- Generator: Sketch 48.2 (47327) - http://www.bohemiancoding.com/sketch -->
    <title>basketball</title>
    <desc>Created with Sketch.</desc>
    <defs></defs>
    <g id="Page-1" stroke="none" stroke-width="1" fill="none" fill-rule="evenodd">
        <g id="basketball" transform="translate(1.000000, 2.000000)" stroke="#000000" stroke-width="3">
            <path d="M0,56.3828125 C20.1614583,74.6119792 45.5058594,73.5208333 76.0332031,53.109375 C106.560547,32.6979167 108.538411,14.9947917 81.9667969,0" id="Path-8"></path>
            <path d="M28,28 C70.2265625,48.4322917 103.728516,78.3470052 128.505859,117.744141 C165.671875,176.839844 175.470703,215.380859 180.310547,292.728516" id="Path-9"></path>
            <path d="M70.1017438,289.267447 C12.5522646,192.10729 21.9526552,117.248566 98.3029156,64.6912748 C174.653176,12.1339831 243.185728,37.193879 303.900572,139.870962" id="Path-11"></path>
            <path d="M32,240.883703 C100.927083,267.783443 132.645833,258.505448 127.15625,213.049719 C120.643685,159.123332 32.3641816,141.092093 115.242188,86.1922968 C163.902344,53.9589844 200.667969,114.954016 208.417969,131.317297 C216.167969,147.680578 253.714844,210.541906 284.546875,124.268469" id="Path-12"></path>
        </g>
    </g>
</svg>