<?xml version="1.0" encoding="UTF-8"?>
<svg width="364px" height="364px" viewBox="0 0 364 364" version="1.1" xmlns="http://www.w3.org/2000/svg" xmlns:xlink="http://www.w3.org/1999/xlink">
    <!-- Generator: Sketch 50.2 (55047) - http://www.bohemiancoding.com/sketch -->
    <title>dartboard</title>
    <desc>Created with Sketch.</desc>
    <defs></defs>
    <g id="Page-1" stroke="none" stroke-width="1" fill="none" fill-rule="evenodd">
        <g id="dartboard" transform="translate(11.000000, 11.000000)">
            <path d="M341.55,171 C341.55,265.192164 265.192164,341.55 171,341.55 C76.8078359,341.55 0.45,265.192164 0.45,171 C0.45,76.8078359 76.8078359,0.45 171,0.45 C265.192164,0.45 341.55,76.8078359 341.55,171 Z" id="DoubleRed" stroke="#000000" stroke-width="21.1000004" fill="#000000"></path>
            <path d="M332.45,171 C332.45,260.166373 260.166373,332.45 171,332.45 C81.8336271,332.45 9.55,260.166373 9.55,171 C9.55,81.8336271 81.8336271,9.55 171,9.55 C260.166373,9.55 332.45,81.8336271 332.45,171 Z" id="path2195" fill="#FFFFFF"></path>
            <path d="M278.55,171 C278.55,230.398225 230.398225,278.55 171,278.55 C111.601775,278.55 63.45,230.398225 63.45,171 C63.45,111.601775 111.601775,63.45 171,63.45 C230.398225,63.45 278.55,111.601775 278.55,171 Z" id="TrebleRed" stroke="#000000" stroke-width="21.1000004" fill="#000000"></path>
            <path d="M269.449997,171 C269.449998,206.172797 250.685534,238.673801 220.224999,256.2602 C189.764464,273.846598 152.235536,273.846598 121.775001,256.2602 C91.3144658,238.673801 72.5500025,206.172797 72.550003,171 C72.5500023,135.827203 91.3144655,103.326198 121.775001,85.7397999 C152.235536,68.1534013 189.764464,68.1534013 220.224999,85.7397999 C250.685534,103.326198 269.449998,135.827203 269.449997,171 Z" id="path2197" fill="#FFFFFF"></path>
            <path d="M193.791407,171 C193.791407,183.587346 183.587346,193.791407 171,193.791407 C158.412654,193.791407 148.208593,183.587346 148.208593,171 C148.208593,158.412654 158.412654,148.208593 171,148.208593 C183.587346,148.208593 193.791407,158.412654 193.791407,171 Z" id="path5939" fill="#000000"></path>
            <path d="M180.559921,171 C180.559921,176.279799 176.279799,180.559921 171,180.559921 C165.720201,180.559921 161.440079,176.279799 161.440079,171 C161.440079,165.720201 165.720201,161.440079 171,161.440079 C176.279799,161.440079 180.559921,165.720201 180.559921,171 Z" id="path5944" fill="#000000"></path>
        </g>
    </g>
</svg>