<?xml version="1.0" encoding="UTF-8"?>
<svg width="364px" height="364px" viewBox="0 0 364 364" version="1.1" xmlns="http://www.w3.org/2000/svg" xmlns:xlink="http://www.w3.org/1999/xlink">
    <!-- Generator: Sketch 50.2 (55047) - http://www.bohemiancoding.com/sketch -->
    <title>dartboard</title>
    <desc>Created with Sketch.</desc>
    <defs></defs>
    <g id="Page-1" stroke="none" stroke-width="1" fill="none" fill-rule="evenodd">
        <g id="dartboard" transform="translate(5.000000, 6.000000)">
            <path d="M347.55,176 C347.55,270.192164 271.192164,346.55 177,346.55 C82.8078359,346.55 6.45,270.192164 6.45,176 C6.45,81.8078359 82.8078359,5.45 177,5.45 C271.192164,5.45 347.55,81.8078359 347.55,176 Z" id="DoubleRed" stroke="#538C6F" stroke-width="21.1000004" fill="#538C6F"></path>
            <path d="M338.45,176 C338.45,265.166373 266.166373,337.45 177,337.45 C87.8336271,337.45 15.55,265.166373 15.55,176 C15.55,86.8336271 87.8336271,14.55 177,14.55 C266.166373,14.55 338.45,86.8336271 338.45,176 Z" id="path2195" fill="#000000"></path>
            <path d="M284.55,176 C284.55,235.398225 236.398225,283.55 177,283.55 C117.601775,283.55 69.45,235.398225 69.45,176 C69.45,116.601775 117.601775,68.45 177,68.45 C236.398225,68.45 284.55,116.601775 284.55,176 Z" id="TrebleRed" stroke="#538C6F" stroke-width="21.1000004" fill="#538C6F"></path>
            <path d="M275.449997,176 C275.449998,211.172797 256.685534,243.673801 226.224999,261.2602 C195.764464,278.846598 158.235536,278.846598 127.775001,261.2602 C97.3144658,243.673801 78.5500025,211.172797 78.550003,176 C78.5500023,140.827203 97.3144655,108.326198 127.775001,90.7397999 C158.235536,73.1534013 195.764464,73.1534013 226.224999,90.7397999 C256.685534,108.326198 275.449998,140.827203 275.449997,176 Z" id="path2197" fill="#000000"></path>
            <g id="GreenDoubleSpiders" fill="#538C6F">
                <path d="M247.040324,61.7046644 C247.040324,79.6014366 244.223418,97.3866829 238.693012,114.407525 L76.4902901,61.7046644 L247.040324,61.7046644 Z" id="path4826" transform="translate(161.765307, 88.056095) rotate(-116.999962) translate(-161.765307, -88.056095) "></path>
                <path d="M198.257753,87.455221 C198.257753,105.351985 195.440849,123.137224 189.910445,140.158058 L27.7077936,87.455221 L198.257753,87.455221 Z" id="path4830" transform="translate(112.982773, 113.806640) rotate(-152.999961) translate(-112.982773, -113.806640) "></path>
                <path d="M173.927612,136.961509 C173.927613,154.85827 171.110709,172.643506 165.580306,189.664337 L3.37768187,136.961509 L173.927612,136.961509 Z" id="path4832" transform="translate(88.652647, 163.312923) rotate(171.000023) translate(-88.652647, -163.312923) "></path>
                <path d="M183.343166,191.313773 C183.343166,209.210534 180.526262,226.99577 174.995859,244.016602 L12.7932338,191.313773 L183.343166,191.313773 Z" id="path4834" transform="translate(98.068200, 217.665187) rotate(135.000041) translate(-98.068200, -217.665187) "></path>
                <path d="M222.907998,229.751391 C222.907998,247.648155 220.091094,265.433393 214.56069,282.454227 L52.3580407,229.751391 L222.907998,229.751391 Z" id="path4836" transform="translate(137.633019, 256.102809) rotate(99.000033) translate(-137.633019, -256.102809) "></path>
                <path d="M277.50971,237.592475 C277.50971,255.489247 274.692805,273.274494 269.162398,290.295336 L106.959676,237.592475 L277.50971,237.592475 Z" id="path4838" transform="translate(192.234693, 263.943905) rotate(63.000038) translate(-192.234693, -263.943905) "></path>
                <path d="M326.292206,211.841942 C326.292207,229.738706 323.475302,247.523945 317.944898,264.544779 L155.742247,211.841942 L326.292206,211.841942 Z" id="path4840" transform="translate(241.017227, 238.193360) rotate(27.000039) translate(-241.017227, -238.193360) "></path>
                <path d="M350.622318,162.335663 C350.622319,180.232424 347.805415,198.01766 342.275012,215.038491 L180.072388,162.335663 L350.622318,162.335663 Z" id="path4842" transform="translate(265.347353, 188.687077) rotate(-8.999977) translate(-265.347353, -188.687077) "></path>
                <path d="M341.206766,107.983398 C341.206767,125.88016 338.389863,143.665396 332.85946,160.686227 L170.656834,107.983398 L341.206766,107.983398 Z" id="path4844" transform="translate(255.931800, 134.334813) rotate(-44.999959) translate(-255.931800, -134.334813) "></path>
                <path d="M301.641959,69.5457726 C301.64196,87.4425367 298.825055,105.227775 293.294651,122.248609 L131.092002,69.5457726 L301.641959,69.5457726 Z" id="path4846" transform="translate(216.366981, 95.897191) rotate(-80.999967) translate(-216.366981, -95.897191) "></path>
            </g>
            <g id="g4876" transform="translate(9.000000, 9.000000)" fill="#FFFFFF">
                <path d="M234.303197,58.8030972 C234.303195,75.744955 231.636588,92.5812373 226.401265,108.693901 L72.8531647,58.8030972 L234.303197,58.8030972 Z" id="path4878" transform="translate(153.578181, 83.748499) rotate(-116.999962) translate(-153.578181, -83.748499) "></path>
                <path d="M188.123507,83.1796871 C188.123506,100.121537 185.4569,116.957812 180.221579,133.070469 L26.6735457,83.1796871 L188.123507,83.1796871 Z" id="path4880" transform="translate(107.398526, 108.125078) rotate(-152.999961) translate(-107.398526, -108.125078) "></path>
                <path d="M165.091545,130.044479 C165.091543,146.986326 162.424938,163.822598 157.189618,179.935252 L3.64161099,130.044479 L165.091545,130.044479 Z" id="path4882" transform="translate(84.366578, 154.989865) rotate(171.000023) translate(-84.366578, -154.989865) "></path>
                <path d="M174.004715,181.49668 C174.004714,198.438528 171.338109,215.2748 166.102789,231.387454 L12.5547796,181.49668 L174.004715,181.49668 Z" id="path4884" transform="translate(93.279748, 206.442067) rotate(135.000041) translate(-93.279748, -206.442067) "></path>
                <path d="M211.458495,217.88339 C211.458494,234.82524 208.791888,251.661515 203.556567,267.774171 L50.0085358,217.88339 L211.458495,217.88339 Z" id="path4886" transform="translate(130.733515, 242.828781) rotate(99.000033) translate(-130.733515, -242.828781) "></path>
                <path d="M263.146835,225.306099 C263.146834,242.247957 260.480227,259.084239 255.244904,275.196903 L101.696803,225.306099 L263.146835,225.306099 Z" id="path4888" transform="translate(182.421819, 250.251501) rotate(63.000038) translate(-182.421819, -250.251501) "></path>
                <path d="M309.326454,200.929531 C309.326453,217.871381 306.659847,234.707656 301.424526,250.820313 L147.876493,200.929531 L309.326454,200.929531 Z" id="path4890" transform="translate(228.601474, 225.874922) rotate(27.000039) translate(-228.601474, -225.874922) "></path>
                <path d="M332.358389,154.064748 C332.358388,171.006595 329.691782,187.842867 324.456462,203.955521 L170.908455,154.064748 L332.358389,154.064748 Z" id="path4892" transform="translate(251.633422, 179.010135) rotate(-8.999977) translate(-251.633422, -179.010135) "></path>
                <path d="M323.44522,102.612546 C323.445219,119.554394 320.778614,136.390666 315.543294,152.50332 L161.995285,102.612546 L323.44522,102.612546 Z" id="path4894" transform="translate(242.720252, 127.557933) rotate(-44.999959) translate(-242.720252, -127.557933) "></path>
                <path d="M285.991464,66.2258287 C285.991463,83.1676788 283.324857,100.003954 278.089536,116.11661 L124.541505,66.2258287 L285.991464,66.2258287 Z" id="path4896" transform="translate(205.266485, 91.171219) rotate(-80.999967) translate(-205.266485, -91.171219) "></path>
            </g>
            <g id="GreenTrebleSpiders" transform="translate(65.000000, 65.000000)" fill="#538C6F">
                <path d="M156.167909,38.9245771 C156.167909,50.2104045 154.39155,61.4259029 150.904038,72.1593627 L48.6178875,38.9245771 L156.167909,38.9245771 Z" id="path4856" transform="translate(102.392898, 55.541970) rotate(-116.999962) translate(-102.392898, -55.541970) "></path>
                <path d="M125.405285,55.1630547 C125.405285,66.4488771 123.628926,77.6643706 120.141416,88.3978257 L17.8553105,55.1630547 L125.405285,55.1630547 Z" id="path4858" transform="translate(71.630298, 71.780440) rotate(-152.999961) translate(-71.630298, -71.780440) "></path>
                <path d="M110.062531,86.3820594 C110.062532,97.6678799 108.286173,108.883372 104.798663,119.616825 L2.51257509,86.3820594 L110.062531,86.3820594 Z" id="path4860" transform="translate(56.287553, 102.999442) rotate(171.000023) translate(-56.287553, -102.999442) "></path>
                <path d="M116.000044,120.65697 C116.000045,131.94279 114.223686,143.158282 110.736176,153.891736 L8.45008664,120.65697 L116.000044,120.65697 Z" id="path4862" transform="translate(62.225065, 137.274353) rotate(135.000041) translate(-62.225065, -137.274353) "></path>
                <path d="M140.949898,144.895996 C140.949899,156.181818 139.17354,167.397311 135.686029,178.130766 L33.3999253,144.895996 L140.949898,144.895996 Z" id="path4864" transform="translate(87.174912, 161.513381) rotate(99.000033) translate(-87.174912, -161.513381) "></path>
                <path d="M175.382112,149.840637 C175.382113,161.126465 173.605753,172.341963 170.118241,183.075423 L67.8320913,149.840637 L175.382112,149.840637 Z" id="path4866" transform="translate(121.607102, 166.458030) rotate(63.000038) translate(-121.607102, -166.458030) "></path>
                <path d="M206.144689,133.602174 C206.14469,144.887997 204.368331,156.10349 200.880821,166.836945 L98.5947153,133.602174 L206.144689,133.602174 Z" id="path4868" transform="translate(152.369702, 150.219560) rotate(27.000039) translate(-152.369702, -150.219560) "></path>
                <path d="M221.487425,102.383175 C221.487426,113.668996 219.711067,124.884487 216.223557,135.617941 L113.937469,102.383175 L221.487425,102.383175 Z" id="path4870" transform="translate(167.712447, 119.000558) rotate(-8.999977) translate(-167.712447, -119.000558) "></path>
                <path d="M215.549913,68.1082644 C215.549914,79.394085 213.773555,90.6095768 210.286045,101.34303 L107.999956,68.1082644 L215.549913,68.1082644 Z" id="path4872" transform="translate(161.774935, 84.725647) rotate(-44.999959) translate(-161.774935, -84.725647) "></path>
                <path d="M190.600075,43.8692338 C190.600075,55.1550561 188.823716,66.3705495 185.336206,77.1040044 L83.0501019,43.8692338 L190.600075,43.8692338 Z" id="path4874" transform="translate(136.825088, 60.486619) rotate(-80.999967) translate(-136.825088, -60.486619) "></path>
            </g>
            <g id="g5771" transform="translate(75.000000, 74.000000)" fill="#FFFFFF">
                <path d="M142.430781,36.0230113 C142.430781,46.353924 140.804721,56.6204584 137.612294,66.4457403 L43.9807643,36.0230113 L142.430781,36.0230113 Z" id="path5773" transform="translate(93.205773, 51.234376) rotate(-116.999962) translate(-93.205773, -51.234376) "></path>
                <path d="M114.271039,50.8875215 C114.271039,61.2184297 112.64498,71.4849596 109.452554,81.3102372 L15.8210655,50.8875215 L114.271039,50.8875215 Z" id="path5775" transform="translate(65.046052, 66.098879) rotate(-152.999961) translate(-65.046052, -66.098879) "></path>
                <path d="M100.226464,79.4650289 C100.226464,89.7959354 98.6004056,100.062464 95.4079799,109.887739 L1.7765072,79.4650289 L100.226464,79.4650289 Z" id="path5777" transform="translate(51.001486, 94.676384) rotate(171.000023) translate(-51.001486, -94.676384) "></path>
                <path d="M105.661593,110.839876 C105.661593,121.170783 104.035535,131.437311 100.843109,141.262587 L7.21163508,110.839876 L105.661593,110.839876 Z" id="path5779" transform="translate(56.436614, 126.051232) rotate(135.000041) translate(-56.436614, -126.051232) "></path>
                <path d="M128.500394,133.027993 C128.500394,143.358901 126.874336,153.625431 123.681909,163.450709 L30.0504221,133.027993 L128.500394,133.027993 Z" id="path5781" transform="translate(79.275408, 148.239351) rotate(99.000033) translate(-79.275408, -148.239351) "></path>
                <path d="M160.019236,137.55426 C160.019236,147.885172 158.393176,158.151707 155.200749,167.976989 L61.5692193,137.55426 L160.019236,137.55426 Z" id="path5783" transform="translate(110.794227, 152.765624) rotate(63.000038) translate(-110.794227, -152.765624) "></path>
                <path d="M188.178934,122.689763 C188.178935,133.020671 186.552876,143.287201 183.36045,153.112479 L89.7289611,122.689763 L188.178934,122.689763 Z" id="path5785" transform="translate(138.953948, 137.901121) rotate(27.000039) translate(-138.953948, -137.901121) "></path>
                <path d="M202.223493,94.1122605 C202.223493,104.443167 200.597434,114.709695 197.405009,124.534971 L103.773536,94.1122605 L202.223493,94.1122605 Z" id="path5787" transform="translate(152.998514, 109.323616) rotate(-8.999977) translate(-152.998514, -109.323616) "></path>
                <path d="M196.788365,62.737413 C196.788365,73.0683195 195.162307,83.3348479 191.969881,93.1601239 L98.3384071,62.737413 L196.788365,62.737413 Z" id="path5789" transform="translate(147.563386, 77.948768) rotate(-44.999959) translate(-147.563386, -77.948768) "></path>
                <path d="M173.949578,40.5492914 C173.949578,50.8801994 172.323519,61.1467292 169.131093,70.9720067 L75.4996058,40.5492914 L173.949578,40.5492914 Z" id="path5791" transform="translate(124.724592, 55.760649) rotate(-80.999967) translate(-124.724592, -55.760649) "></path>
            </g>
            <path d="M199.791407,176 C199.791407,188.587346 189.587346,198.791407 177,198.791407 C164.412654,198.791407 154.208593,188.587346 154.208593,176 C154.208593,163.412654 164.412654,153.208593 177,153.208593 C189.587346,153.208593 199.791407,163.412654 199.791407,176 Z" id="path5939" fill="#538C6F"></path>
            <path d="M186.559921,176 C186.559921,181.279799 182.279799,185.559921 177,185.559921 C171.720201,185.559921 167.440079,181.279799 167.440079,176 C167.440079,170.720201 171.720201,166.440079 177,166.440079 C182.279799,166.440079 186.559921,170.720201 186.559921,176 Z" id="path5944" fill="#BF2C47"></path>
        </g>
    </g>
</svg>