<?xml version="1.0" encoding="UTF-8"?>
<svg width="564px" height="139px" viewBox="0 0 564 139" version="1.1" xmlns="http://www.w3.org/2000/svg" xmlns:xlink="http://www.w3.org/1999/xlink">
    <!-- Generator: Sketch 50.2 (55047) - http://www.bohemiancoding.com/sketch -->
    <title>egg-white</title>
    <desc>Created with Sketch.</desc>
    <defs></defs>
    <g id="Page-1" stroke="none" stroke-width="1" fill="none" fill-rule="evenodd">
        <g id="egg" transform="translate(0.000000, 1.000000)" fill="#FFFFFF">
            <path d="M267.239259,0.790697235 C293.65626,7.84085494 316.681081,10.1595636 336.313723,7.74682313 C365.762686,4.12771246 364.905161,-2.23079893 386.229518,0.790697235 C407.553874,3.81219339 442.57237,16.2845552 466.539301,19.2124652 C490.506233,22.1403752 541.612061,25.5495855 541.760816,35.9630516 C541.90957,46.3765178 550.086677,58.6055556 557.75627,62.8276286 C565.425863,67.0497015 571.358532,77.7265459 541.760816,86.0904751 C512.163099,94.4544043 449.818003,122.773578 415.619629,123.995546 C381.421256,125.217513 342.329519,125.615923 323.00022,130.01581 C303.67092,134.415696 242.83044,146.636713 161.44875,127.863328 C80.0670611,109.089943 69.2386282,118.424495 56.4413893,117.467242 C43.6441504,116.509989 24.9054925,111.676932 26.5942905,97.4117271 C28.2830885,83.1465218 -3.1871814,79.4231294 0.264791767,73.3279962 C3.71676493,67.232863 33.3494826,60.3863666 36.7183284,55.1268242 C40.0871742,49.8672818 49.4936917,48.64264 56.4413893,35.9630516 C63.3890869,23.2834633 108.282239,20.8930053 147.592731,11.1119142 C173.799727,4.5911868 213.681902,1.15078114 267.239259,0.790697235 Z" id="egg-white" transform="translate(282.000000, 69.000000) rotate(2.000000) translate(-282.000000, -69.000000) "></path>
        </g>
    </g>
</svg>