<?xml version="1.0" encoding="UTF-8"?>
<svg width="185px" height="58px" viewBox="0 0 185 58" version="1.1" xmlns="http://www.w3.org/2000/svg" xmlns:xlink="http://www.w3.org/1999/xlink">
    <!-- Generator: Sketch 51 (57462) - http://www.bohemiancoding.com/sketch -->
    <title>eggman-stencil</title>
    <desc>Created with Sketch.</desc>
    <defs>
        <filter x="-5.9%" y="-4.5%" width="111.8%" height="109.0%" filterUnits="objectBoundingBox" id="filter-1">
            <feGaussianBlur stdDeviation="0" in="SourceGraphic"></feGaussianBlur>
        </filter>
        <filter x="-6.5%" y="-36.1%" width="112.9%" height="172.3%" filterUnits="objectBoundingBox" id="filter-2">
            <feGaussianBlur stdDeviation="0" in="SourceGraphic"></feGaussianBlur>
        </filter>
        <filter x="-16.6%" y="-4.2%" width="133.2%" height="108.4%" filterUnits="objectBoundingBox" id="filter-3">
            <feGaussianBlur stdDeviation="0" in="SourceGraphic"></feGaussianBlur>
        </filter>
        <filter x="-3.7%" y="-2.2%" width="107.5%" height="104.4%" filterUnits="objectBoundingBox" id="filter-4">
            <feGaussianBlur stdDeviation="0" in="SourceGraphic"></feGaussianBlur>
        </filter>
        <filter x="-3.8%" y="-3.2%" width="107.5%" height="106.3%" filterUnits="objectBoundingBox" id="filter-5">
            <feGaussianBlur stdDeviation="0" in="SourceGraphic"></feGaussianBlur>
        </filter>
        <filter x="-75.9%" y="-56.9%" width="251.7%" height="213.8%" filterUnits="objectBoundingBox" id="filter-6">
            <feGaussianBlur stdDeviation="0" in="SourceGraphic"></feGaussianBlur>
        </filter>
    </defs>
    <g id="Page-1" stroke="none" stroke-width="1" fill="none" fill-rule="evenodd">
        <g id="spotlight" transform="translate(-7.000000, -12.000000)" fill-rule="nonzero" stroke="#000000">
            <g id="eggman-stencil" transform="translate(99.881213, 40.906394) scale(-1, 1) rotate(82.000000) translate(-99.881213, -40.906394) translate(71.381213, -50.093606)">
                <polyline id="Path-10" stroke-width="3" filter="url(#filter-1)" points="25.6461956 80.7464362 0.144486515 107.528251 22.4913052 114.194627"></polyline>
                <path d="M23.3994142,103.533662 L0.224291985,107.683623" id="Path-11" stroke-width="3" filter="url(#filter-2)"></path>
                <path d="M19.369238,58.514169 C15.01748,67.6138371 12.7270416,72.3812769 12.4979227,72.8164884 C12.1542443,73.4693056 8.91826121,76.6994846 11.0923167,83.2280858 C12.541687,87.5804867 13.0102223,91.3168386 12.4979227,94.4371418" id="Path-12" stroke-width="3" filter="url(#filter-3)"></path>
                <path d="M15.9804017,112.762807 C17.0880244,118.341582 17.6356143,121.624553 17.6231715,122.611719 C17.6045073,124.092468 18.9682798,131.219807 25.7694435,130.138646 C32.5706072,129.057485 43.5103925,125.125988 43.8708043,123.900186 C44.2312161,122.674383 45.869159,109.706455 45.9283695,107.228668 C45.9678431,105.57681 45.9678431,103.12921 45.9283695,99.8858692 C51.5917689,97.8102453 54.8020083,94.4053808 55.5590876,89.6712758 C56.6947065,82.5701182 56.2548111,76.312773 54.0350605,76.3694278 C51.81531,76.4260825 47.3664769,82.4924325 47.2232776,87.337701 C47.0800782,92.1829696 43.310557,80.1421189 45.0749658,73.4924825 C46.2512384,69.0593916 47.2396892,65.4729744 48.0403182,62.7332309" id="Path-14" stroke-width="3" filter="url(#filter-4)"></path>
                <path d="M53.7322503,76.7050642 C56.6644577,61.2068433 54.7836659,51.8545179 48.0898749,48.6480881 C38.0491883,43.8384434 30.6089373,48.9459547 26.6823795,47.3978208 C22.7558217,45.849687 18.5946744,40.7606313 19.4538704,38.5334989 C20.3130663,36.3063664 13.2621888,42.689468 15.8774269,52.8873225 C18.492665,63.0851771 31.6686123,56.8934044 32.1995762,57.3977652 C32.73054,57.9021261 35.1552747,61.6825429 39.6250246,62.3121831 C42.6048578,62.7319433 45.4264746,62.7319433 48.0898749,62.3121831 C48.3082673,62.034346 48.3082673,62.2383245 48.0898749,62.9241188 C47.8714825,63.6099131 47.248042,65.9353614 46.2195534,69.9004638 L44.7944324,80.0407267 L45.6422266,85.4109734 L53.7322503,76.7050642 Z" id="Path-15" stroke-width="3" fill="#000000" filter="url(#filter-5)"></path>
                <ellipse id="Oval-14" stroke-width="3" filter="url(#filter-6)" cx="14.8283711" cy="99.0909859" rx="1" ry="1.31851049"></ellipse>
                <path d="M35,46.3472534 L41.5136817,0" id="Path-22" stroke-width="2"></path>
                <path d="M16.901679,181.384226 L23.5136817,131" id="Path-22-Copy" stroke-width="2"></path>
            </g>
        </g>
    </g>
</svg>