<?xml version="1.0" encoding="UTF-8"?>
<svg width="197px" height="327px" viewBox="0 0 197 327" version="1.1" xmlns="http://www.w3.org/2000/svg" xmlns:xlink="http://www.w3.org/1999/xlink">
    <!-- Generator: Sketch 50.2 (55047) - http://www.bohemiancoding.com/sketch -->
    <title>face</title>
    <desc>Created with Sketch.</desc>
    <defs></defs>
    <g id="Page-1" stroke="none" stroke-width="1" fill="none" fill-rule="evenodd">
        <g id="face" transform="translate(99.500000, 162.500000) rotate(-2.000000) translate(-99.500000, -162.500000) translate(1.000000, -2.000000)">
            <path d="M45.2441406,177.796875 C41.7259115,215.175781 39.3932292,245.776693 38.2460938,269.599609 C36.5253906,305.333984 33.1972656,315.847656 35.0664062,318.416016 C36.9355469,320.984375 103.722656,330.455078 117.548828,328.576172 C131.375,326.697266 150.640625,328.298828 151.501953,307.105469 C152.363281,285.912109 166.826172,230.978516 170.826172,225.050781 C173.492839,221.098958 176.600911,205.347656 180.150391,177.796875 L45.2441406,177.796875 Z" id="Path-18" fill="#B6B6B6"></path>
            <path d="M50.859375,186.462891 C53.765625,180.395182 55.2285156,186.477214 55.2480469,204.708984 C55.2773438,232.056641 55.3027344,232.339844 53.0537109,242.556641 C50.8046875,252.773438 52.8554688,257.919922 50.859375,265.099609 C48.8632813,272.279297 47.5097656,270.923828 47.0566406,291.673828 C46.6035156,312.423828 67.375,318.240234 77.7929688,317.941406 C84.7382812,317.742188 105.966146,316.567708 141.476562,314.417969 C141.083333,311.246094 141.083333,305.470052 141.476562,297.089844 C142.066406,284.519531 135.291016,284.539062 141.476562,271.21875 C147.662109,257.898438 151.5,255.310547 154.458984,245.738281 C157.417969,236.166016 156.439453,237.080078 162.160156,223.123047 C165.973958,213.818359 169.233724,201.598307 171.939453,186.462891 L50.859375,186.462891 Z" id="Path-17" fill="#D8D8D8"></path>
            <path d="M124.549805,51.8544922 L146.263672,55.9599609 C157.322917,55.8453776 163.454427,55.8453776 164.658203,55.9599609 C166.463867,56.1318359 180.859375,69.3818359 182.005859,70.3935547 C182.770182,71.0680339 187.302734,78.1682943 195.603516,91.6943359 C194.886068,111.087565 194.886068,122.142904 195.603516,124.860352 C196.679688,128.936523 197.34375,146.987305 195.603516,151.280273 C193.863281,155.573242 189.329102,167.525391 188.626953,169.513672 C188.158854,170.839193 179.574219,182.233398 162.873047,203.696289 L52.7304688,208.865234 C34.5104167,190.420573 24.3515625,178.031901 22.2539063,171.699219 C19.1074219,162.200195 18.5839844,124.166016 18.7089844,123.113281 C18.7923177,122.411458 19.4970703,110.746094 20.8232422,88.1171875 L29.9667969,61.1425781 C36.1914062,54.09375 39.6565755,50.9977214 40.3623047,51.8544922 C41.4208984,53.1396484 55.3408203,55.3925781 60.8857422,55.9599609 C66.4306641,56.5273438 88.3759766,53.5830078 89.2480469,53.4912109 C89.8294271,53.430013 101.59668,52.8844401 124.549805,51.8544922 Z" id="Path-13" fill="#E7E7E7"></path>
            <path d="M21.6347656,71.6103516 C16.1289062,64.4847005 14.1861979,57.648763 15.8066406,51.1025391 C18.2373047,41.2832031 15.1962891,29.5839844 27.1679687,20.8554688 C39.1396484,12.1269531 48.4130859,4.99804688 59.6904297,4.13476563 C70.9677734,3.27148438 76.1796875,2.59960938 86.0419922,2.75683594 C95.9042969,2.9140625 99.0019531,3.59472656 106.321289,4.13476562 C113.640625,4.67480469 110.996094,4.74316406 123.710937,4.13476562 C136.425781,3.52636719 158.446289,8.18554688 161.299805,12.2763672 C164.15332,16.3671875 160.59082,18.3789063 168.717773,20.8554688 C176.844727,23.3320312 177.1875,20.0595703 182.15918,27.9277344 C187.130859,35.7958984 187.814453,33.6728516 189.040039,41.6787109 C189.857096,47.0159505 191.388021,57.78125 193.632812,73.9746094 C104.52474,85.046224 59.2519531,90.4199219 57.8144531,90.0957031 C56.3769531,89.7714844 44.3170573,83.6097005 21.6347656,71.6103516 Z" id="Path-16" fill="#C4C4C4"></path>
            <path d="M24.8095703,87.2421875 C23.8378906,88.0263672 16.9677734,99.4101562 22.078125,114.744141 C27.1884766,130.078125 41.2919922,145.625 40.0644531,157.919922 C38.8369141,170.214844 33.0556641,180.638672 35.1015625,185.488281 C37.1474609,190.337891 63.6933594,224.700195 70.6435547,226.576172 C77.59375,228.452148 80.8378906,247.891602 77.1230469,256.683594 C74.6464844,262.544922 73.5589193,276.652995 73.8603516,299.007812 C102.200195,298.567057 116.878906,298.567057 117.896484,299.007812 C119.422852,299.668945 121.730469,263.99707 122.375977,254.532227 C123.021484,245.067383 118.789063,232.332031 122.375977,230.479492 C125.962891,228.626953 161.470703,208.732422 164.660156,203.623047 C167.849609,198.513672 189.430664,177.262695 184.908203,163.450195 C180.385742,149.637695 180.501953,137.650391 184.908203,127.085937 C189.314453,116.521484 179.49707,89.5898438 173.060547,87.2421875 C166.624023,84.8945312 163.094727,84.7236328 160.665039,83.1503906 C158.235352,81.5771484 157.118164,79.3886719 161.944336,75.3193359 C166.770508,71.25 167.611328,59.2900391 160.665039,59.3339844 C156.03418,59.3632812 147.65625,59.3632812 135.53125,59.3339844 C137.849609,62.1080729 140.166341,64.5351562 142.481445,66.6152344 C145.954102,69.7353516 155.682617,74.2109375 154.147461,77.0664062 C152.612305,79.921875 150.305664,80.4277344 147.876953,83.1503906 C145.448242,85.8730469 144.006836,90.5800781 140.827148,90.7587891 C137.647461,90.9375 131.054688,88.7998047 130.439453,90.7587891 C129.824219,92.7177734 81.2490234,99.5341797 78.8076172,98.4169922 C76.3662109,97.2998047 69.7236328,93.0410156 70.6435547,90.7587891 C71.5634766,88.4765625 60.5341797,83.5322266 60.5058594,80.2197266 C60.4775391,76.9072266 60.0058594,73.7060547 62.9150391,71.7167969 C65.8242188,69.7275391 72.1347656,55.2412109 67.7246094,57.1865234 C63.3144531,59.1318359 57.6640625,59.5634766 52.3134766,59.3339844 C46.9628906,59.1044922 37.1972656,54.8466797 38.1591797,59.3339844 C39.1210938,63.8212891 44.5205078,66.9921875 45.2207031,71.7167969 C45.9208984,76.4414062 45.2626953,81.9462891 41.6484375,83.1503906 C38.0341797,84.3544922 32.5,88.5576172 30.9013672,87.2421875 C29.3027344,85.9267578 25.78125,86.4580078 24.8095703,87.2421875 Z" id="Path-3" fill="#FFFFFF"></path>
            <path d="M33.5078125,29.5966797 C31.6308594,32.4013672 29.9339193,35.2405599 28.4169922,38.1142578 C26.1416016,42.4248047 23.7255859,45.2529297 24.1943359,48.7451172 C24.6630859,52.2373047 24.3339844,55.0439453 26.9462891,54.0380859 C29.5585938,53.0322266 33.5664062,49.40625 33.5078125,48.7451172 C33.4492188,48.0839844 37.1738281,40.8779297 39.4472656,40.1162109 C41.7207031,39.3544922 45.7685547,34.8320313 49.2685547,34.3828125 C52.7685547,33.9335938 61.3271484,34.6513672 63.0244141,34.3828125 C64.7216797,34.1142578 70.7871094,37.4248047 71.9316406,38.1142578 C72.6946615,38.5738932 75.7779948,39.2412109 81.1816406,40.1162109 L127.118164,41.920816 C131.798503,41.6389699 134.574219,41.0374349 135.445312,40.1162109 C136.751953,38.734375 144.865234,32.7275391 153.935547,34.3828125 C163.005859,36.0380859 162.481445,33.4755859 166.139648,38.1142578 C169.797852,42.7529297 172.416992,45.3671875 172.969727,46.3603516 C173.522461,47.3535156 174.640625,50.5546875 176.661133,52.1787109 C178.681641,53.8027344 186.407227,58.0654297 187.274414,57.7744141 C188.141602,57.4833984 189.579102,29.0205078 166.139648,24.9472656 C142.700195,20.8740234 140.353516,18.1367188 138.28418,19.6650391 C136.214844,21.1933594 133.701172,23.46875 129.242188,21.8544922 C124.783203,20.2402344 122.068359,20.1845703 121.144531,16.2128906 C120.220703,12.2412109 126.858398,10.9306641 118.392578,10.0810547 C109.926758,9.23144531 107.978516,10.8710938 104.381836,10.0810547 C100.785156,9.29101562 96.7060547,8.8125 93.7001953,10.0810547 C90.6943359,11.3496094 85.0732422,16.3183594 82.8076172,18.0625 C80.5419922,19.8066406 79.7021484,22.1220703 71.9316406,21.8544922 C64.1611328,21.5869141 63.6103516,22.8759766 54.0449219,21.8544922 C47.6679688,21.1735026 41.7695312,22.2044271 36.3496094,24.9472656 L33.5078125,29.5966797 Z" id="Path-14" fill="#FFFFFF"></path>
            <path d="M114.121582,33.2348633 C115.415039,33.171875 162.802246,30.4116211 163.404297,30.4692383 C164.006348,30.5268555 178.324219,39.0097656 179.009277,39.6811523 C179.465983,40.1287435 182.832845,46.0900065 189.109863,57.5649414 C193.009277,66.8302409 194.870605,71.8538411 194.693848,72.6357422 C194.51709,73.4176432 193.231283,78.4117839 190.836426,87.6181641 C160.566569,87.3701172 143.776042,86.1852214 140.464844,84.0634766 C135.498047,80.8808594 114.084473,62.4775391 114.121582,60.0063477 C114.158691,57.5351562 112.828125,33.2978516 114.121582,33.2348633 Z" id="Path-15" fill="#E7E7E7"></path>
            <path d="M66.4453125,138.261719 C77.0917969,129.134115 84.6302083,124.811035 89.0605469,125.29248 C95.7060547,126.014648 95.4619141,127.282227 99.46875,127.215332 C103.475586,127.148438 107.896484,124.216309 110.355469,125.29248 C112.814453,126.368652 132.749023,138.118652 134.169922,138.261719 C135.59082,138.404785 136.805176,138.192383 137.591309,137.407227 C138.377441,136.62207 141.108398,137.30957 143.126465,139.416992 C145.144531,141.524414 144.726562,143.32373 147.504395,144.470703 C150.282227,145.617676 149.357422,126.662109 143.126465,121.884766 C136.895508,117.107422 126.666992,104.799805 128.520508,93.3603516 C130.374023,81.9208984 133.134766,65.6982422 132.613281,61.0351562 C132.091797,56.3720703 124.824219,37.4794922 121.694336,34.1601562 C118.564453,30.8408203 104.466797,16.1738281 96.9765625,17.4863281 C89.4863281,18.7988281 70.2851562,38.4873047 71.8720703,57.7802734 C73.4589844,77.0732422 76.3046875,90.4960938 75.2568359,95.1591797 C74.2089844,99.8222656 56.5185547,126.114258 56.2753906,131.736328 C56.1132812,135.484375 56.1132812,139.158529 56.2753906,142.758789 C58.3111979,137.191081 60.2939453,134.529297 62.2236328,134.773438 C64.1533203,135.017578 65.5605469,136.180339 66.4453125,138.261719 Z" id="Path-2" fill="#000000"></path>
            <path d="M128.486328,105.295898 C128.291016,109.225911 126.275228,111.189453 122.438965,111.186523 C116.68457,111.182129 116.50293,109.975586 114.663574,110.021973 C112.824219,110.068359 110.549316,115.955566 104.252441,116.041504 C97.9555664,116.127441 94.921875,115.842773 93.3222656,114.638184 C91.7226562,113.433594 87.0854492,109.232422 87.0957031,108.57666 C87.105957,107.920898 90.6748047,105.538574 90.8833008,103.398926 C91.0917969,101.259277 89.4936523,100.963379 88.2504883,100.998535 C87.0073242,101.033691 83.6933594,102.172363 84.6396484,103.398926 C85.5859375,104.625488 86.9985352,107.15332 84.6396484,108.57666 C82.2807617,110 78.6064453,111.12793 76.7036133,107.812988 C74.8007812,104.498047 74.168457,99.9023438 74.2597656,99.0039063 C74.3510742,98.1054688 76.3452148,96.6713867 77.9208984,95.1811523 C79.496582,93.690918 85.5366211,81.8969727 94.3764648,81.5161133 C103.216309,81.1352539 110.644043,82.0512695 116.464355,87.7475586 C122.284668,93.4438477 122.746094,97.3198242 125.773437,97.9794922 C127.791667,98.4192708 128.695964,100.858073 128.486328,105.295898 Z" id="Path" fill="#FFFFFF"></path>
            <ellipse id="Oval-Copy" fill="#000000" cx="151" cy="46" rx="8" ry="6"></ellipse>
            <g id="left-eye" transform="translate(40.000000, 35.000000)">
                <path d="M3.13867188,11.8544922 C5.18245443,16.7120768 10.2373047,18.6369629 18.3032227,17.6291504 C26.3691406,16.6213379 30.4128418,13.6749674 30.4343262,8.79003906 L23.6157227,5.34399414 L7.6328125,6.86645508 L3.13867188,11.8544922 Z" id="Path-7" fill="#FFFFFF"></path>
                <path d="M1.49536133,10.9238281 C2.56860352,12.5151367 3.22452799,13.2653809 3.46313477,13.1745605 C3.82104492,13.0383301 14.222168,6.75292969 18.2026367,7.21191406 C20.8562826,7.51790365 24.6097005,8.12052409 29.4628906,9.01977539 L29.4628906,7.21191406 L25.1147461,3.91625977 L16.1704102,1.66748047 L9.42871094,3.10205078 L5.04321289,7.21191406 L1.49536133,10.9238281 Z" id="Path-6" fill="#F2F2F2"></path>
                <ellipse id="Oval" fill="#000000" cx="18" cy="10" rx="8" ry="6"></ellipse>
                <path d="M0.649902344,11.8232422 C2.78808594,12.40625 8.72998047,1.44775391 16.1845703,2.43310547 C23.6391602,3.41845703 29.0444336,7.20800781 29.6806641,7.73925781 C30.3168945,8.27050781 30.012207,6.74462891 29.6806641,6.33398437 C29.3491211,5.92333984 22.2079316,0.374511719 15.3510361,0.755371094 C8.49414063,1.13623047 -1.48828125,11.2402344 0.649902344,11.8232422 Z" id="Path-4" fill="#FFFFFF"></path>
            </g>
            <path d="M135.367676,47.2680664 C141.882324,40.4265951 146.811686,37.4570312 150.155762,38.359375 C155.171875,39.7128906 162.602539,43.3701172 164.155762,45.5561523 C165.708984,47.7421875 166.746094,48.8671875 167.222168,48.7050781 C167.698242,48.5429688 166.834473,43.53125 161.376953,41.1757813 C155.919434,38.8203125 154.030762,36.4995117 148.990723,36.2773438 C143.950684,36.0551758 137.265625,41.5573622 136.071289,42.4988959 C134.876953,43.4404297 133.717773,44.8120117 133.942383,45.5561523 C134.092122,46.0522461 134.56722,46.6228841 135.367676,47.2680664 Z" id="Path-5" fill="#FFFFFF"></path>
            <path d="M81.7744141,55.6625977 C70.1188151,59.3406576 63.0576172,61.3234049 60.5908203,61.6108398 C58.1240234,61.8982747 51.1181641,60.906901 39.5732422,58.6367187 C35.1757813,61.171875 33.8917643,64.1992188 35.7211914,67.71875 C38.465332,72.9980469 39.8378906,75.3334961 39.5732422,75.8554688 C39.3085937,76.3774414 37.09375,81.8320313 35.0512695,80.8251953 C33.0087891,79.8183594 29.3325195,76.3061523 28.0581055,78.3134766 C26.7836914,80.3208008 21.972168,100.4375 21.7573242,103.539551 C21.6140951,105.607585 20.9956055,116.616862 19.9018555,136.567383 C18.4516602,130.865885 16.5615234,128.062988 14.2314453,128.158691 C10.7363281,128.302246 7.99560547,131.109863 6.60546875,131.990723 C5.21533203,132.871582 2.61962891,133.891602 0.971679687,133.736816 C-0.676269531,133.582031 17.6210937,117.692383 17.4057617,115.922363 C17.262207,114.74235 16.605957,111.464681 15.4370117,106.089355 C16.4070638,100.429199 16.0052083,96.3273112 14.2314453,93.7836914 C11.5708008,89.9682617 10.1977539,82.0966797 8.95751953,79.9418945 C8.13069661,78.5053711 7.65152995,74.4309896 7.52001953,67.71875 C12.7840169,60.2044271 15.4230143,55.6033529 15.4370117,53.9155273 C15.4580078,51.3837891 14.6381836,34.5493164 16.8994141,30.2060547 C19.1606445,25.862793 27.6972656,18.3198242 28.3808594,17.9335938 C29.0644531,17.5473633 36.6401367,9.81396484 39.0009766,9.34375 C41.3618164,8.87353516 55.0595703,0.384765625 57.8164062,0.529296875 C60.5732422,0.673828125 68.4882812,12.3613281 70.1049805,11.3837891 C71.7216797,10.40625 74.6870117,9.78613281 73.2119141,11.3837891 C71.7368164,12.9814453 62.9609375,16.5932617 61.7324219,16.6889648 C60.5039062,16.784668 52.8632812,19.0610352 50.9233398,19.284668 C48.9833984,19.5083008 28.206543,25.8686523 25.7495117,32.597168 C23.2924805,39.3256836 22.1567383,40.890625 21.7573242,44.5703125 C21.3579102,48.25 21.3901367,54.4301758 21.7573242,55.6625977 C22.1245117,56.8950195 21.2539062,60.6289063 23.3623047,60.7495117 C25.4707031,60.8701172 32.8291016,56.6748047 34.0161133,54.9702148 C35.203125,53.265625 36.0332031,51.9243164 37.6108398,50.5449219 C39.1884766,49.1655273 39.9550515,48.3032227 41.3205433,48.3842773 C42.6860352,48.465332 46.8818359,51.847168 49.5253906,52.0371094 C52.1689453,52.2270508 69.8847656,49.4858398 73.2119141,48.3842773 C75.430013,47.6499023 78.6425781,45.9755859 82.8496094,43.3613281 L81.7744141,55.6625977 Z" id="Path-8" fill="#000000"></path>
            <path d="M74.3710937,155.14502 C70.6308594,154.722168 68.1622721,153.906087 66.965332,152.696777 C65.1699219,150.882812 65.8676758,148.291016 68.2836914,147.874512 C70.699707,147.458008 78.1030273,139.803711 78.5029297,139.803711 C78.902832,139.803711 90.3374023,140.573242 92.2602539,141.834961 C94.1831055,143.09668 93.7797852,143.453613 96.5561523,143.399902 C99.3325195,143.346191 98.0317383,143.282715 102.378418,143.399902 C106.725098,143.51709 115.069336,144.099121 116.871094,143.399902 C118.672852,142.700684 126.33252,143.879883 128.491211,146.422363 C130.649902,148.964844 128.955566,149.804688 133.350098,150.930664 C137.744629,152.056641 137.782227,152.78418 136.150391,154.246094 C134.518555,155.708008 133.578125,158.390137 132.123535,157.687012 C130.668945,156.983887 130.455078,156.50293 128.491211,155.14502 C126.527344,153.787109 124.023926,151.180176 122.842773,150.930664 C121.661621,150.681152 107.361816,149.852539 104.256348,150.930664 C101.150879,152.008789 99.0708008,152.968262 98.4829102,152.696777 C97.8950195,152.425293 96.8549805,151.849609 92.2602539,150.121582 C87.6655273,148.393555 81.8676758,147.323242 80.3793945,147.874512 C78.8911133,148.425781 76.6435547,148.23984 76.0576172,148.803025 C75.4716797,149.366211 72.78125,150.878906 72.8623047,151.655762 C72.9163411,152.173665 73.4192708,153.336751 74.3710937,155.14502 Z" id="Path-9" fill="#000000"></path>
            <path d="M80.0222611,191.927895 C80.973433,187.778481 81.3406205,186.850746 81.5144486,185.272621 C81.6882767,183.694496 81.879683,183.461098 80.0222611,185.272621 C78.1648392,187.084145 77.1091751,187.814613 77.0037064,189.362465 C76.8982376,190.910317 79.0710892,196.077309 80.0222611,191.927895 Z" id="Path-10" fill="#E3E3E3"></path>
            <path d="M96.0063233,178.921204 C97.8617921,178.638977 100.242651,178.493469 103.121558,178.921204 C106.000464,179.348938 105.068823,179.758118 108.459448,180.746399 C111.850073,181.73468 112.657691,182.05304 114.485816,182.254211 C116.313941,182.455383 110.97605,181.378235 110.125464,178.921204 C109.274878,176.464172 106.120443,175.501282 105.435453,175.61261 C104.750464,175.723938 103.343237,174.809876 101.105933,175.61261 C98.868628,176.415344 96.7172608,173.89679 96.0063233,175.61261 C95.2953858,177.32843 94.1508546,179.20343 96.0063233,178.921204 Z" id="Path-11" fill="#E3E3E3"></path>
            <path d="M121.776367,42.2714844 L136.676758,44.0097656 C135.674154,48.1223958 137.191732,50.8925781 141.229492,52.3203125 C147.286133,54.4619141 152.168945,55.5566406 155.462891,55.1416016 C158.756836,54.7265625 160.717773,50.6611328 165.989258,52.3203125 C171.260742,53.9794922 175.765625,59.0634766 179.175781,59.6367188 C182.585938,60.2099609 186.516602,64.3574219 188.880859,66.578125 C191.245117,68.7988281 193.980469,69.9863281 193.283203,75.3662109 C192.818359,78.9527995 192.818359,84.5833333 193.283203,92.2578125 C184.007812,86.8385417 179.305339,83.7832031 179.175781,83.0917969 C178.981445,82.0546875 164.384766,79.7412109 165.989258,78.9697266 C167.59375,78.1982422 171.172852,75.6005859 171.856445,71.7958984 C172.540039,67.9912109 172.582031,68.5410156 171.856445,64.8720703 C171.130859,61.203125 169.96875,57.7011719 167.793945,57.953125 C165.619141,58.2050781 155.908203,57.6484375 152.660156,57.953125 C150.494792,58.15625 144.620443,58.15625 135.037109,57.953125 L124.006836,55.1416016 L121.776367,42.2714844 Z" id="Path-12" fill="#000000"></path>
        </g>
    </g>
</svg>