<?xml version="1.0" encoding="UTF-8"?>
<svg width="256px" height="216px" viewBox="0 0 256 216" version="1.1" xmlns="http://www.w3.org/2000/svg" xmlns:xlink="http://www.w3.org/1999/xlink">
    <!-- Generator: Sketch 51.1 (57501) - http://www.bohemiancoding.com/sketch -->
    <title>lunar-pod</title>
    <desc>Created with Sketch.</desc>
    <defs></defs>
    <g id="Page-1" stroke="none" stroke-width="1" fill="none" fill-rule="evenodd">
        <g id="lunar-pod" fill-rule="nonzero">
            <path d="M103.914,76.661 C104.257,75.057 104.833,73.545 105.614,72.162 L46.265,58.97 C42.577,58.157 39.999,54.947 39.999,51.165 L39.999,46.978 C37.44,47.639 34.762,48.001 31.999,48.001 C30.199,48.001 28.434,47.852 26.714,47.565 C25.794,47.412 24.891,47.208 23.999,46.978 L23.999,51.165 C23.999,62.501 31.726,72.134 42.796,74.595 L87.404,84.51 C91.603,81.657 96.145,79.207 100.999,77.243 C101.929,76.862 102.917,76.671 103.914,76.661 Z" id="Shape" fill="#8F8F8F"></path>
            <path d="M136,48.001 C136,47.547 135.953,47.104 135.881,46.67 C133.412,47.528 130.762,48.001 128,48.001 C125.238,48.001 122.589,47.529 120.119,46.67 C120.046,47.104 120,47.546 120,48.001 L120,64.001 L136,64.001 L136,48.001 Z" id="Shape" fill="#8F8F8F"></path>
            <path d="M98.179,213.493 C99.687,215.095 101.796,216.001 103.999,216.001 L111.999,216.001 L143.999,216.001 L151.999,216.001 C154.202,216.001 156.312,215.095 157.819,213.493 C159.226,211.999 159.99,210.032 159.987,208.001 L184,208.001 L200,208.001 L248,208.001 C252.422,208.001 256,204.423 256,200.001 L256,171.532 C256,161.188 249.406,152.04 239.594,148.766 L202.531,136.414 C202.008,136.234 201.476,136.117 200.937,136.055 L199.549,135.892 C199.846,138.56 200,141.266 200,144.001 C200,145.284 199.956,146.561 199.888,147.833 L202.626,151.939 C206.13,157.195 208.001,163.372 208.001,169.689 L208.001,208.001 L159.99,208.001 C159.989,207.808 159.995,207.67 159.986,207.532 L152.431,79.063 C152.382,78.234 152.253,77.429 152.083,76.639 C150.522,69.388 144.085,64 136.455,64 L120,64 C113.596,64 108.372,67.28 105.615,72.161 C104.834,73.544 104.258,75.056 103.915,76.66 C103.748,77.443 103.62,78.241 103.571,79.063 L96.016,207.532 C95.001,207.82 94.023,207.504 93.133,207.009 C70.227,194.306 56,170.165 56,144.001 C56,136.127 57.27,128.492 59.637,121.312 C58.743,121.893 57.955,122.65 57.344,123.563 L46.719,139.501 C42.321,146.087 40,153.759 40,161.689 L40,200.002 C40,204.424 43.578,208.002 48,208.002 L56,208.002 L72,208.002 L96.011,208.002 C96.008,210.032 96.772,211.999 98.179,213.493 Z M144,199.001 C144,199.553 143.552,200.001 143,200.001 L113,200.001 C112.448,200.001 112,199.553 112,199.001 L112,145.001 C112,144.449 112.448,144.001 113,144.001 L143,144.001 C143.552,144.001 144,144.449 144,145.001 L144,199.001 Z" id="Shape" fill="#E65B56"></path>
            <path d="M159.984,207.532 C159.992,207.67 159.987,207.808 159.988,207.946 C161.002,207.82 161.985,207.503 162.883,207.001 C184.651,194.921 198.573,172.497 199.888,147.833 C199.956,146.561 200,145.284 200,144.001 C200,141.267 199.847,138.561 199.549,135.892 C196.639,109.758 179.785,87.243 154.96,77.219 C154.044,76.844 153.064,76.654 152.08,76.639 C152.25,77.428 152.379,78.234 152.428,79.063 L159.984,207.532 Z" id="Shape" fill="#FF8682"></path>
            <path d="M93.133,207.009 C94.023,207.504 95.002,207.82 96.012,207.946 C96.013,207.808 96.007,207.671 96.016,207.532 L103.571,79.063 C103.62,78.241 103.748,77.443 103.915,76.66 C102.918,76.67 101.93,76.862 101.001,77.242 C96.147,79.206 91.605,81.656 87.406,84.509 C74.27,93.433 64.56,106.375 59.638,121.311 C57.272,128.491 56.001,136.126 56.001,144 C56,170.165 70.227,194.306 93.133,207.009 Z" id="Shape" fill="#D93732"></path>
            <path d="M32,48.001 C34.763,48.001 37.441,47.639 40,46.978 C55.222,43.046 66.087,28.178 63.66,11.283 C63.386,9.372 61.623,8.002 59.693,8.002 L32,8.002 L32,48.001 Z" id="Shape" fill="#B6B8BE"></path>
            <path d="M128,48.001 C130.762,48.001 133.411,47.529 135.881,46.67 C145.263,43.409 152,34.494 152,24.001 C152,10.746 141.255,0.001 128,0.001 L128,48.001 Z" id="Shape" fill="#DBDBDB"></path>
            <path d="M143,144.001 L113,144.001 C112.448,144.001 112,144.449 112,145.001 L112,199.001 C112,199.553 112.448,200.001 113,200.001 L143,200.001 C143.552,200.001 144,199.553 144,199.001 L144,145.001 C144,144.449 143.552,144.001 143,144.001 Z" id="Shape" fill="#D93732"></path>
            <path d="M128,0.001 C121.373,0.001 115.373,2.687 111.029,7.03 C109.943,8.116 108.961,9.305 108.098,10.582 C107.667,11.22 107.265,11.881 106.896,12.561 C105.972,14.261 105.248,16.086 104.755,18.003 C104.262,19.92 104,21.93 104,24.001 C104,26.072 104.262,28.082 104.756,29.999 C105.249,31.916 105.973,33.741 106.897,35.441 C107.266,36.121 107.668,36.781 108.099,37.42 C108.962,38.697 109.944,39.886 111.03,40.972 C113.563,43.505 116.663,45.469 120.12,46.671 C122.589,47.529 125.239,48.002 128.001,48.002 L128.001,0.001 L128,0.001 Z" id="Shape" fill="#DBDBDB"></path>
            <path d="M26.715,47.565 C28.434,47.852 30.2,48.001 32,48.001 L32,8.001 L4.307,8.001 C2.859,8.001 1.506,8.772 0.804,9.964 C0.57,10.361 0.408,10.805 0.34,11.283 C-2.229,29.168 10.093,44.792 26.715,47.565 Z" id="Shape" fill="#DBDBDB"></path>
            <path d="M162.883,207.001 C161.985,207.503 161.002,207.821 159.988,207.946 C159.988,207.964 159.988,207.982 159.988,208.001 L208,208.001 L208,169.689 C208,163.372 206.13,157.195 202.625,151.939 L199.887,147.833 C198.573,172.496 184.65,194.921 162.883,207.001 Z" id="Shape" fill="#D93732"></path>
        </g>
    </g>
</svg>