<?xml version="1.0" encoding="UTF-8"?>
<svg width="512px" height="184px" viewBox="0 0 512 184" version="1.1" xmlns="http://www.w3.org/2000/svg" xmlns:xlink="http://www.w3.org/1999/xlink">
    <!-- Generator: Sketch 51.1 (57501) - http://www.bohemiancoding.com/sketch -->
    <title>lunar-lander</title>
    <desc>Created with Sketch.</desc>
    <defs></defs>
    <g id="Page-1" stroke="none" stroke-width="1" fill="none" fill-rule="evenodd">
        <g id="lunar-lander" fill-rule="nonzero">
            <rect id="Rectangle-path" fill="#8F8F8F" x="184" y="0.001" width="16" height="16"></rect>
            <rect id="Rectangle-path" fill="#8F8F8F" x="312" y="0.001" width="16" height="16"></rect>
            <polygon id="Shape" fill="#B42D29" points="240 8.001 240 16.001 256 16.001 272 16.001 272 8.001"></polygon>
            <path d="M168,112.001 L168,120.001 C168,128.821 175.18,136.001 184,136.001 L248,136.001 L248,112.001 L168,112.001 Z" id="Shape" fill="#B42D29"></path>
            <path d="M264,136.001 L328,136.001 C336.82,136.001 344,128.821 344,120.001 L344,112.001 L264,112.001 L264,136.001 Z" id="Shape" fill="#B42D29"></path>
            <path d="M144,104.001 L144,86.614 L103.922,52.261 L144,42.243 L144,32.001 C144,29.645 144.525,27.414 145.444,25.397 L96.766,37.563 C87.688,39.836 80.086,45.938 75.907,54.297 L19.055,168.001 L36.946,168.001 L61.148,119.596 L152.289,112.001 L152,112.001 C147.578,112.001 144,108.423 144,104.001 Z M90.196,61.5 C90.385,61.698 90.585,61.889 90.797,62.071 L132.272,97.621 L69.521,102.85 L90.196,61.5 Z" id="Shape" fill="#8F8F8F"></path>
            <path d="M8,168.001 C3.578,168.001 0,171.579 0,176.001 C0,180.423 3.578,184.001 8,184.001 L48,184.001 C52.422,184.001 56,180.423 56,176.001 C56,171.579 52.422,168.001 48,168.001 L36.945,168.001 L19.055,168.001 L8,168.001 Z" id="Shape" fill="#D93732"></path>
            <path d="M436.095,54.298 C431.915,45.939 424.314,39.837 415.236,37.564 L366.555,25.397 C367.474,27.413 367.999,29.645 367.999,32.001 L367.999,42.242 L408.079,52.261 L368,86.615 L368,104.001 C368,108.423 364.422,112.001 360,112.001 L359.713,112.001 L450.854,119.596 L475.056,168.001 L492.947,168.001 L436.095,54.298 Z M379.73,97.621 L421.205,62.071 C421.417,61.889 421.618,61.698 421.806,61.5 L442.481,102.85 L379.73,97.621 Z" id="Shape" fill="#8F8F8F"></path>
            <path d="M504.002,168.001 L492.947,168.001 L475.056,168.001 L464.001,168.001 C459.579,168.001 456.001,171.579 456.001,176.001 C456.001,180.423 459.579,184.001 464.001,184.001 L504.001,184.001 C508.423,184.001 512.001,180.423 512.001,176.001 C512.001,171.579 508.424,168.001 504.002,168.001 Z" id="Shape" fill="#D93732"></path>
            <path d="M248,24.001 C248,19.579 251.578,16.001 256,16.001 L240,16.001 L200,16.001 L184,16.001 L160,16.001 C153.536,16.001 147.965,19.865 145.444,25.397 C144.525,27.413 144,29.645 144,32.001 L144,42.243 L144,86.614 L144,104.001 C144,108.423 147.578,112.001 152,112.001 L168,112.001 L248,112.001 L248,24.001 Z" id="Shape" fill="#D93732"></path>
            <path d="M368,104.001 L368,86.615 L368,42.242 L368,32.001 C368,29.645 367.475,27.413 366.556,25.397 C364.035,19.865 358.465,16.001 352,16.001 L328,16.001 L312,16.001 L272,16.001 L256,16.001 C260.422,16.001 264,19.579 264,24.001 L264,112.001 L344,112.001 L359.713,112.001 C364.422,112.001 368,108.423 368,104.001 Z" id="Shape" fill="#E65B56"></path>
            <path d="M264,24.001 C264,19.579 260.422,16.001 256,16.001 C251.578,16.001 248,19.579 248,24.001 L248,112.001 L248,136.001 L248,168.001 L264,168.001 L264,136.001 L264,112.001 L264,24.001 Z" id="Shape" fill="#8F8F8F"></path>
            <path d="M232,168.001 C227.578,168.001 224,171.579 224,176.001 C224,180.423 227.578,184.001 232,184.001 L280,184.001 C284.422,184.001 288,180.423 288,176.001 C288,171.579 284.422,168.001 280,168.001 L264,168.001 L248,168.001 L232,168.001 Z" id="Shape" fill="#D93732"></path>
        </g>
    </g>
</svg>