<?xml version="1.0" encoding="utf-8"?>
<!-- Generator: Adobe Illustrator 17.0.0, SVG Export Plug-In . SVG Version: 6.00 Build 0)  -->
<!DOCTYPE svg PUBLIC "-//W3C//DTD SVG 1.0//EN" "http://www.w3.org/TR/2001/REC-SVG-20010904/DTD/svg10.dtd">
<svg version="1.0" id="Layer_1" xmlns="http://www.w3.org/2000/svg" xmlns:xlink="http://www.w3.org/1999/xlink" x="0px" y="0px"
	 width="247.229px" height="286.607px" viewBox="0 0 247.229 286.607" enable-background="new 0 0 247.229 286.607"
	 xml:space="preserve">
<polygon fill="#FFFFFF" stroke="#000000" stroke-miterlimit="10" points="141.187,121.384 147.437,148.384 166.687,184.134 
	186.687,182.384 193.937,154.634 163.187,121.384 "/>
<g>
	<polygon fill="#FFFFFF" points="225.718,109.353 228.78,105.236 242.53,110.322 240.062,115.822 	"/>
	<polygon fill="#FFFFFF" points="36.495,254.051 34.103,254.884 35.299,258.872 41.02,276.134 47.353,270.884 45.27,252.051 	"/>
	<path d="M107.35,76.034c-6.802,0.934-12.108,7.407-19.567,1.409c-0.203-2.374-0.53-5.772-0.774-9.176
		c-0.292-4.061-0.211-8.175-0.843-12.179c-0.757-4.795-1.934-9.495,0.231-14.203c4.633-3.411,8.94-2.462,11.833,2.72
		c0.801,1.435,1.328,3.034,1.875,4.595c0.538,1.534,0.941,3.115,1.503,5.01c2.208-0.187,4.146-0.352,6.098-0.517
		c3.012-2.138,5.953-4.315,8.984-6.359c6.695-4.512,14.144-2.823,16.693,4.757c3.263,9.704,5.408,19.793,7.836,29.764
		c1.605,6.591,2.861,13.267,4.329,20.17c3.856-6.938,7.419-13.721,5.379-21.972c0.742,0.084,1.041,0.072,1.054,0.126
		c1.956,8.38,8.254,13.844,13.451,20.042c8.625,10.287,14.186,22.056,17.006,35.145c1.915,8.89,3.251,10.159,12.33,11.5
		c2.627,0.388,5.268,0.7,7.877,1.185c4.667,0.868,7.669-1.277,9.75-5.187c3.041-5.712,5.802-11.427,7.021-17.971
		c1.077-5.78,3.545-11.3,5.543-17.372c6.331,1.057,11.859,2.261,16.597,7.523c-0.535,2.144-1.018,4.676-1.802,7.111
		c-2.488,7.721-5.125,15.395-7.615,23.116c-0.504,1.563-0.645,3.248-0.896,4.885c-0.611,3.974-1.409,7.819-4.413,10.872
		c-1.016,1.032-1.967,2.458-2.231,3.84c-1.106,5.793-5.031,8.971-9.678,11.983c-5.712,3.702-11.015,8.036-16.493,12.097
		c-1.608,1.192-3.213,2.387-4.526,3.362c6.706,12.866,5.534,21.429-2.998,27.025c-9.087,5.961-21.223,2.663-29.572-7.955
		c-3.291,0.627-6.525,1.206-9.743,1.865c-6.135,1.256-11.386,4.431-14.764,9.475c-11.085,16.553-27.725,26.104-44.397,35.39
		c-8.347,4.649-17.72,7.472-26.671,11.016c-6.648,2.632-13.363,5.093-20.425,7.773c-0.602-0.45-1.469-1.098-2.676-1.999
		c1.299-1.187,2.34-2.138,3.515-3.212c-0.005-6.521-0.37-12.903-4.874-18.419c-1.646,0.268-3.066,0.499-4.801,0.781
		c-0.214-0.964-0.404-1.822-0.669-3.017c8.09-2.11,15.976-3.972,23.74-6.249c7.151-2.097,14.206-4.54,21.237-7.02
		c5.642-1.99,10.401-5.334,13.508-10.565c5.85-9.849,11.744-19.679,17.242-29.724c1.799-3.287,2.727-7.152,3.515-10.867
		c1.051-4.957-0.191-9.546-3.352-13.618c-5.396-6.949-10.399-14.23-16.139-20.878c-5.636-6.529-11.656-12.817-18.135-18.495
		c-4.236-3.713-5.542-7.212-3.078-11.66c-2.652-5.447-5.013-10.566-7.628-15.552c-1.301-2.48-2.838-4.919-4.677-7.018
		c-3.291-3.756-4.808-7.961-5.798-12.891c-1.813-9.029-4.698-17.843-7.151-26.743c-0.698-2.534-1.356-5.084-2.194-7.573
		c-1.308-3.883-2.849-7.688-4.113-11.584c-1.155-3.561-2.04-7.209-3.115-10.797c-0.374-1.249-0.938-2.445-1.455-3.648
		c-1.632-3.799-3.523-7.51-4.817-11.419c-0.578-1.746-0.431-4.042,0.182-5.813c1.88-5.427,9.208-9.539,15.265-8.845
		c2.381,3.262,3.677,6.879,3.247,11.081c-0.168,1.646-0.104,3.341,0.068,4.991c0.299,2.874,0.592,5.425,2.753,8.088
		c2.22,2.738,2.388,7.085,3.693,10.641c0.828,2.256,1.965,4.427,3.187,6.504c1.817,3.088,4.241,5.878,5.674,9.119
		c2.477,5.604,4.551,11.402,6.494,17.22c1.824,5.461,5.463,9.72,9.719,12.996c4.653,3.582,7.634,8.217,11.068,12.686
		c3.821,4.973,8.107,9.589,12.311,14.502c1.597-0.943,2.677-1.581,4.089-2.415C109.899,95.73,108.651,86.084,107.35,76.034z
		 M146.723,130.75c-0.512,0.401-1.024,0.803-1.535,1.204c4.786,13.686,7.366,28.267,17.044,40.117
		c4.888,0.869,9.803,1.742,14.754,2.622c1.4,1.912,2.951,4.032,4.503,6.152c0.209-0.177,0.419-0.355,0.628-0.532
		c-2.427-10.839-4.855-21.679-7.446-33.248c-0.828-0.257-2.519-0.988-4.283-1.29c-6.635-1.136-11.989-4.269-16.45-9.347
		C151.951,134.167,149.153,132.621,146.723,130.75z M121.74,151.452c1.031,0.645,2.513,1.747,4.138,2.56
		c11.977,5.993,20.736,14.71,24.205,28.057c0.324,1.248,1.303,2.326,2.163,3.8c0.769-6.411,1.449-12.084,2.152-17.944
		c-9.743-10.381-14.522-23.393-17.98-37.641c-7.933,3.183-16.821,3.051-21.382,11.098
		C117.313,144.802,119.23,147.682,121.74,151.452z"/>
	<path d="M43.067,269.931c-5.538,2.816-10.36,4.977-14.864,7.669c-2.64,1.578-4.724,4.064-7.154,6.024
		c-1.386,1.118-2.964,1.997-4.456,2.983c-0.359-0.35-0.718-0.701-1.078-1.051c1.564-2.958,3.128-5.915,4.75-8.984
		c-5.515-3.813-10.977,2.313-16.708-1.273c2.679-1.397,5.358-2.793,8.13-4.238c-3.72-1.725-7.8,2.595-11.35-0.184
		c-0.113-0.498-0.225-0.996-0.338-1.494c3.242-1.287,6.485-2.573,9.727-3.86c-0.003-0.235-0.005-0.47-0.008-0.705
		c-3.082,0-6.164,0-9.246,0c-0.027-0.44-0.055-0.879-0.082-1.319c5.692-3.649,12.138-3.597,18.721-2.868
		c0.181-0.381,0.361-0.763,0.542-1.144c-1.765-1.2-3.445-2.557-5.316-3.559c-2.385-1.278-4.662-2.444-4.014-6.622
		c9.304,3.564,18.183,6.966,28.657,10.978C39.791,262.195,41.232,265.598,43.067,269.931z"/>
	<path d="M242.389,96.227c1.254-0.895,2.507-1.79,3.761-2.685c0.36,0.297,0.72,0.595,1.08,0.892c-0.88,1.766-1.76,3.532-2.64,5.298
		c0.184,0.075,0.368,0.15,0.552,0.225c-1.441,3.356-2.883,6.712-4.233,9.856c-4.636-1.75-8.382-3.163-12.128-4.577
		c-0.222,0.304-0.444,0.607-0.667,0.911c-2.094-2.809-4.187-5.618-6.281-8.427c0.276-0.361,0.552-0.722,0.828-1.083
		c2.442,0.79,4.883,1.58,7.383,2.389c2.601-4.34-2.365-6.853-1.827-11.722c2.415,2.362,4.052,3.963,5.964,5.832
		c0-1.617,0-3.191,0-4.894c3.415,0.067,3.167,3.055,4.337,4.788l-0.331-0.045l0.201,0.067c0.738-1.256,1.475-2.511,2.213-3.767
		c0.395,0.071,0.791,0.141,1.186,0.212c0.24,2.21,0.48,4.42,0.72,6.631c-0.078-0.046-0.157-0.091-0.235-0.137
		C242.31,96.07,242.349,96.148,242.389,96.227z"/>
	<path fill="#FFFFFF" d="M121.74,151.452c-2.51-3.77-4.427-6.649-6.704-10.07c4.561-8.047,13.449-7.915,21.382-11.098
		c3.458,14.248,8.237,27.26,17.98,37.641c-0.703,5.86-1.383,11.533-2.152,17.944c-0.859-1.473-1.838-2.551-2.163-3.8
		c-3.469-13.347-12.227-22.064-24.205-28.057C124.252,153.198,122.771,152.097,121.74,151.452z"/>
	<polygon fill="#FFFFFF" points="238.388,93.053 238.187,92.986 238.518,93.032 	"/>
	<path fill="#FFFFFF" d="M242.389,96.227c-0.039-0.079-0.078-0.158-0.118-0.236c0.078,0.046,0.157,0.091,0.235,0.137L242.389,96.227
		z"/>
</g>
</svg>
