<?xml version="1.0" encoding="UTF-8"?>
<svg width="119px" height="203px" viewBox="0 0 119 203" version="1.1" xmlns="http://www.w3.org/2000/svg" xmlns:xlink="http://www.w3.org/1999/xlink">
    <!-- Generator: Sketch 50.2 (55047) - http://www.bohemiancoding.com/sketch -->
    <title>mouse</title>
    <desc>Created with Sketch.</desc>
    <defs></defs>
    <g id="Page-1" stroke="none" stroke-width="1" fill="none" fill-rule="evenodd">
        <g id="mouse" transform="translate(-44.000000, -103.000000)">
            <path d="M82.1750103,134.651614 C84.709458,128.104291 92.8981292,128.194993 90.3723754,134.651614 C87.8466216,141.108235 89.5642947,154.899573 90.3723754,160.125015 C90.3844589,160.203153 90.3820107,160.302867 90.4026271,160.35667 C92.2501399,165.178128 84.5988959,166.386719 82.1750103,160.125015 C79.7143294,153.768256 79.6405626,141.198937 82.1750103,134.651614 Z" id="Rectangle-11" fill="#363636" transform="translate(85.575960, 147.090068) rotate(15.000000) translate(-85.575960, -147.090068) "></path>
            <path d="M151.091797,291.939453 C166.060758,265.581787 128.916992,244.360352 142.298828,183.717773 C155.680664,123.075195 159.380005,124.226318 160.032593,121.839111 C160.685181,119.451904 163.999023,110.017822 161.043701,107.935791 C158.088379,105.85376 153.80249,105.700195 148.765869,114.52002 C143.729248,123.339844 143.370361,124.984619 137.740967,122.680908 C133.835938,119.706787 146.996094,107.251953 138.66626,104.335449 C130.336426,101.418945 125.903564,115.143311 121.608643,125.764893 C117.313721,136.386475 114.059082,158.953857 85.1821289,155.027344 C56.3051758,151.10083 47.7702637,151.176025 44.6098633,160.899902 C41.4494629,170.623779 58.1542969,176.097656 74.28125,176.290527 C90.4082031,176.483398 110.438163,184.339355 103.971279,210.09375 C99.6600226,227.263346 91.6459961,255.078613 79.9291992,293.539551 C117.391624,310.044597 141.11249,309.511231 151.091797,291.939453 Z" id="Path-9" fill="#FFFFFF"></path>
            <path d="M44.2785482,162.354907 C44.339087,161.881059 44.4486204,161.396012 44.6098633,160.899902 C46.6458355,154.635651 50.9122885,152.375707 61.4108745,152.610321 C61.7921864,153.6688 62,154.810131 62,156 C62,161.522847 57.5228475,166 52,166 C48.8905935,166 46.1126491,164.580842 44.2785482,162.354907 Z" id="Combined-Shape" fill="#363636"></path>
            <path d="M99.1750103,134.651614 C101.709458,128.104291 109.898129,128.194993 107.372375,134.651614 C104.846622,141.108235 105.828298,151.105917 106.636379,156.331358 C106.648462,156.409496 107.382011,160.302867 107.402627,160.35667 C109.25014,165.178128 101.598896,166.386719 99.1750103,160.125015 C96.7143294,153.768256 96.6405626,141.198937 99.1750103,134.651614 Z" id="Rectangle-11-Copy" fill="#363636" transform="translate(102.575960, 147.090068) rotate(15.000000) translate(-102.575960, -147.090068) "></path>
            <path d="M137.131261,119.937568 C134.229236,119.516676 132,117.018671 132,114 C132,110.686292 134.686292,108 138,108 C139.260923,108 140.431001,108.388957 141.396796,109.053436 C140.834837,112.522918 137.806743,116.943315 137.131261,119.937568 Z" id="Combined-Shape" fill="#363636"></path>
            <path d="M159.95143,121.999808 C156.660082,121.973711 154,119.297503 154,116 C154,112.686292 156.686292,110 160,110 C160.875888,110 161.70794,110.187681 162.458135,110.525023 C162.547222,113.623561 161.306096,117.603307 160.871826,119.191895 C160.747919,119.645155 160.447868,120.4989 159.95143,121.999808 Z" id="Combined-Shape" fill="#363636"></path>
        </g>
    </g>
</svg>