<?xml version="1.0" encoding="UTF-8"?>
<svg width="2842px" height="1355px" viewBox="0 0 2842 1355" version="1.1" xmlns="http://www.w3.org/2000/svg" xmlns:xlink="http://www.w3.org/1999/xlink">
    <!-- Generator: Sketch 50.2 (55047) - http://www.bohemiancoding.com/sketch -->
    <title>record-needle</title>
    <desc>Created with Sketch.</desc>
    <defs></defs>
    <g id="Page-1" stroke="none" stroke-width="1" fill="none" fill-rule="evenodd">
        <g id="record-needle">
            <path d="M215,1059.4384 L215,1129.60832 L291.652344,1087.80558 C285.575521,1066.84725 281.278646,1056.2548 278.761719,1056.02824 C276.244792,1055.80168 254.990885,1056.9384 215,1059.4384 Z" id="Path-5" fill="#302A2A"></path>
            <path d="M32.8964844,1330.39648 C35.0195312,1333.50098 49.3994141,1354.10352 49.2646484,1354.4707 C49.1748047,1354.71549 46.4467773,1343.93262 41.0805664,1322.12207 C34.2091471,1325.56868 31.4811198,1328.32682 32.8964844,1330.39648 Z" id="Path-8" fill="#A8A8A8"></path>
            <path d="M0.876953125,1289.28223 L4.97363281,1261.25195 L36.4082031,1228.97461 L16.078125,1215.60547 C28.0911458,1197.81901 34.8678385,1188.17643 36.4082031,1186.67773 C37.9485677,1185.17904 106.216797,1153.28255 241.212891,1090.98828 L271.634766,1086.01953 L214.757813,1058.67188 L413.949219,1008.83398 L413.949219,1018.98438 L2833.91406,7.546875 L2833.99219,81.6875 L461.511719,1071.69922 L472.636719,1090.98828 L472.636719,1126.00391 L407.898438,1159.14453 L386.144531,1193.66797 L376.933594,1209.51172 L324.636719,1237.4375 C312.641927,1263.6276 304.152344,1277.3112 299.167969,1278.48828 C291.691406,1280.25391 217.421875,1309.26953 214.757813,1309.5 C212.981771,1309.65365 150.15625,1312.50781 26.28125,1318.0625 L0.876953125,1289.28223 Z" id="Path-4" fill="#141414"></path>
            <path d="M1,1288.19336 L21.2460937,1294.9043 L27.4804687,1304.25977 L37.8847656,1304.25977 L40.7597656,1296.22656 L56.2089844,1304.25977 L233.986328,1257 L215.482422,1310.88086 C189.152995,1322.56966 167.841797,1328.29688 151.548828,1328.0625 C135.255859,1327.82812 106.380208,1331.85872 64.921875,1340.1543 C59.0026042,1339.44987 55.2604167,1339.44987 53.6953125,1340.1543 C52.1302083,1340.85872 47.8183594,1337.70052 40.7597656,1330.67969 L27.4804688,1330.67969 L15.6132812,1325.20312 L1,1288.19336 Z" id="Path-2-Copy" fill="#BA0202"></path>
            <path d="M52.0574271,1302.10106 L69.1660119,1339.3113 C67.7662628,1339.58723 66.3515505,1339.86823 64.921875,1340.1543 C59.0026042,1339.44987 55.2604167,1339.44987 53.6953125,1340.1543 C52.1302083,1340.85872 47.8183594,1337.70052 40.7597656,1330.67969 L27.4804688,1330.67969 L15.6132812,1325.20312 L1,1288.19336 L21.2460937,1294.9043 L27.4804687,1304.25977 L37.8847656,1304.25977 L40.7597656,1296.22656 L52.0574271,1302.10106 Z" id="Combined-Shape" fill="#913426"></path>
            <polygon id="Path-6" fill="#000000" points="50.2929688 1285.60938 73.6484375 1258.67578 178.064453 1231.06055 211.021484 1224.61133 219.833984 1213.83203 265.976562 1189.83008 130.912109 1231.06055 86.8496094 1249.09961 67.8847656 1249.09961 41.2480469 1281.78516"></polygon>
            <path d="M453.242188,1029.63088 L2834.60938,39.8984375 C2841.99479,11.8854167 2843.79427,-1.16666667 2840.00781,0.7421875 C2836.22135,2.65104167 2036.55208,338.80274 441,1009.19728 L453.242188,1029.63088 Z" id="Path-7" fill="#806C63"></path>
        </g>
    </g>
</svg>