<?xml version="1.0" encoding="UTF-8"?>
<svg width="2841px" height="1353px" viewBox="0 0 2841 1353" version="1.1" xmlns="http://www.w3.org/2000/svg" xmlns:xlink="http://www.w3.org/1999/xlink">
    <!-- Generator: Sketch 51 (57462) - http://www.bohemiancoding.com/sketch -->
    <title>record-needle</title>
    <desc>Created with Sketch.</desc>
    <defs></defs>
    <g id="Page-1" stroke="none" stroke-width="1" fill="none" fill-rule="evenodd">
        <g id="record-needle">
            <path d="M214,1058.4384 L214,1128.60832 L290.652344,1086.80558 C284.575521,1065.84725 280.278646,1055.2548 277.761719,1055.02824 C275.244792,1054.80168 253.990885,1055.9384 214,1058.4384 Z" id="Path-5" fill="#302A2A"></path>
            <path d="M32.3626118,1329.27441 C34.4856586,1332.37891 48.8655415,1352.98145 48.7307758,1353.34863 C48.6409321,1353.59342 45.9129047,1342.81055 40.5466938,1321 C33.6752745,1324.44661 30.9472472,1327.20475 32.3626118,1329.27441 Z" id="Path-8" fill="#A8A8A8"></path>
            <path d="M0,1288.73535 L4.09667969,1260.70508 L35.53125,1228.42773 L15.2011719,1215.05859 C27.2141927,1197.27214 33.9908854,1187.62956 35.53125,1186.13086 C37.0716146,1184.63216 105.339844,1152.73568 240.335938,1090.44141 L270.757813,1085.47266 L213.880859,1058.125 L413.072266,1008.28711 L413.072266,1018.4375 L2833.03711,7 L2833.11523,81.140625 L460.634766,1071.15234 L471.759766,1090.44141 L471.759766,1125.45703 L407.021484,1158.59766 L385.267578,1193.12109 L376.056641,1208.96484 L323.759766,1236.89062 C311.764974,1263.08073 303.275391,1276.76432 298.291016,1277.94141 C290.814453,1279.70703 216.544922,1308.72266 213.880859,1308.95313 C212.104818,1309.10677 149.279297,1311.96094 25.4042969,1317.51562 L0,1288.73535 Z" id="Path-4" fill="#141414"></path>
            <path d="M0,1287.19336 L20.2460937,1293.9043 L26.4804687,1303.25977 L36.8847656,1303.25977 L39.7597656,1295.22656 L55.2089844,1303.25977 L232.986328,1256 L214.482422,1309.88086 C188.152995,1321.56966 166.841797,1327.29688 150.548828,1327.0625 C134.255859,1326.82812 105.380208,1330.85872 63.921875,1339.1543 C58.0026042,1338.44987 54.2604167,1338.44987 52.6953125,1339.1543 C51.1302083,1339.85872 46.8183594,1336.70052 39.7597656,1329.67969 L26.4804687,1329.67969 L14.6132812,1324.20312 L0,1287.19336 Z" id="Path-2-Copy" fill="#E65B56"></path>
            <path d="M51.0574271,1300.9077 L68.1660119,1338.11794 C66.7662628,1338.39387 65.3515505,1338.67487 63.921875,1338.96094 C58.0026042,1338.25651 54.2604167,1338.25651 52.6953125,1338.96094 C51.1302083,1339.66536 46.8183594,1336.50716 39.7597656,1329.48633 L26.4804687,1329.48633 L14.6132812,1324.00977 L0,1287 L20.2460937,1293.71094 L26.4804687,1303.06641 L36.8847656,1303.06641 L39.7597656,1295.0332 L51.0574271,1300.9077 Z" id="Combined-Shape" fill="#D93732"></path>
            <polygon id="Path-6" fill="#000000" points="50.0449219 1284.7793 73.4003906 1257.8457 177.816406 1230.23047 210.773437 1223.78125 219.585937 1213.00195 265.728516 1189 130.664062 1230.23047 86.6015625 1248.26953 67.6367188 1248.26953 41 1280.95508"></polygon>
            <path d="M452.242188,1029.07135 L2833.60938,39.3389119 C2840.99479,11.3258911 2842.79427,-1.72619227 2839.00781,0.182661893 C2835.22135,2.09151606 2035.55208,338.243214 440,1008.63776 L452.242188,1029.07135 Z" id="Path-7" fill="#806C63"></path>
        </g>
    </g>
</svg>