<?xml version="1.0" encoding="UTF-8"?>
<svg width="90px" height="90px" viewBox="0 0 90 90" version="1.1" xmlns="http://www.w3.org/2000/svg" xmlns:xlink="http://www.w3.org/1999/xlink">
    <!-- Generator: Sketch 51.1 (57501) - http://www.bohemiancoding.com/sketch -->
    <title>restart</title>
    <desc>Created with Sketch.</desc>
    <defs></defs>
    <g id="Page-1" stroke="none" stroke-width="1" fill="none" fill-rule="evenodd">
        <g id="restart" fill="#FFFFFF" fill-rule="nonzero">
            <path d="M45,0 C20.147,0 0,20.147 0,45 C0,69.853 20.147,90 45,90 C69.853,90 90,69.853 90,45 C90,20.147 69.853,0 45,0 Z M45,87 C21.841,87 3,68.159 3,45 C3,21.841 21.841,3 45,3 C68.159,3 87,21.841 87,45 C87,68.159 68.159,87 45,87 Z" id="Shape"></path>
            <path d="M44.839,18.5 C33.131,18.5 22.873,26.318 19.515,37.23 L18.035,32.866 C17.769,32.082 16.918,31.662 16.133,31.928 C15.348,32.194 14.928,33.046 15.195,33.83 L18.042,42.224 C18.187,42.65 18.514,42.988 18.935,43.146 C19.106,43.21 19.284,43.242 19.462,43.242 C19.723,43.242 19.983,43.174 20.214,43.04 L27.921,38.571 C28.638,38.155 28.882,37.238 28.466,36.521 C28.051,35.804 27.132,35.56 26.416,35.976 L22.331,38.345 C25.234,28.549 34.375,21.5 44.839,21.5 C56.427,21.5 66.42,30.132 68.084,41.592 C68.253,42.692 68.339,43.838 68.339,45 C68.339,46.162 68.253,47.308 68.082,48.421 C66.419,59.868 56.427,68.5 44.839,68.5 C35.507,68.5 27.058,62.977 23.314,54.429 C22.981,53.67 22.099,53.323 21.338,53.657 C20.579,53.99 20.234,54.874 20.566,55.633 C24.789,65.271 34.316,71.5 44.839,71.5 C57.907,71.5 69.175,61.763 71.048,48.865 C71.241,47.615 71.339,46.314 71.339,45 C71.339,43.686 71.241,42.386 71.05,41.148 C69.175,28.237 57.907,18.5 44.839,18.5 Z" id="Shape"></path>
        </g>
    </g>
</svg>