<?xml version="1.0" encoding="UTF-8"?>
<svg width="178px" height="226px" viewBox="0 0 178 226" version="1.1" xmlns="http://www.w3.org/2000/svg" xmlns:xlink="http://www.w3.org/1999/xlink">
    <!-- Generator: Sketch 51.1 (57501) - http://www.bohemiancoding.com/sketch -->
    <title>rocket</title>
    <desc>Created with Sketch.</desc>
    <defs></defs>
    <g id="Page-1" stroke="none" stroke-width="1" fill="none" fill-rule="evenodd">
        <g id="rocket" transform="translate(89.500000, 114.500000) rotate(-2.000000) translate(-89.500000, -114.500000) translate(-1.000000, 3.000000)" fill-rule="nonzero">
            <path d="M68,102.281961 C62.9296642,95.9434408 48.6987676,98.9614176 32.4150409,109.820493 C21.0987512,117.779541 2.23998333,151.433701 0.194870731,159.282492 C-1.85024186,167.131283 12.8051122,165.197932 15.9409515,163.359453 C20.9032435,160.454298 34.9129079,138.948969 36.3123309,136.802795 C37.7143263,134.654058 46.9855034,134.538672 54.1060967,133.030965 C56.1460644,125.182174 65.2011541,106.582001 68,102.281961 Z" id="Shape" fill="#D93732"></path>
            <path d="M123.041459,139 C130.966152,140.988368 134.007143,154.844339 130.650407,173.638676 C127.938102,186.866082 104.624701,217.007139 98.2321498,221.943 C91.8292464,226.886374 87.6184445,213.080488 88.0273607,209.567036 C88.6769682,203.995098 102.771638,182.999533 104.18214,180.898473 C105.592642,178.799919 101.899455,170.508373 100.37249,163.579136 C106.775393,158.633258 120.223043,143.19711 123.041459,139 Z" id="Shape" fill="#D93732"></path>
            <path d="M172.460673,1.29652661 C166.075347,-2.85986798 124.621443,0.467282644 92.8469638,49.5325796 C66.6057578,90.0688734 51.6365039,131.871926 51,137.524013 C57.3827904,141.685495 74.3959573,152.763278 74.3959573,152.763278 C74.3959573,152.763278 91.4116601,163.843605 97.7919147,168 C102.686148,165.120539 136.048083,132.261111 160.914847,93.8615198 C192.674111,44.7911355 178.83332,5.45546488 172.460673,1.29652661 Z" id="Shape" fill="#DFDFDF"></path>
            <circle id="Oval" fill="#434343" cx="131.5" cy="65.5" r="25.5"></circle>
            <path d="M123.054788,78.5028556 C115.88833,73.8415213 113.841509,64.2268732 118.493375,57.0565834 C123.155578,49.8862935 132.769435,47.8424379 139.948815,52.4934368 C147.112689,57.1521872 149.156926,66.7668353 144.507644,73.9422929 C139.848025,81.1151666 130.234168,83.1590222 123.054788,78.5028556 Z" id="Shape" fill="#FFFFFF"></path>
            <path d="M155.755877,27.4899373 C163.610139,32.6895342 172.201376,35.8066925 180.907367,37 C181.804997,17.0387476 175.970402,3.67578366 172.425783,1.31776648 C168.868415,-1.02725171 154.521635,-1.02205211 137,7.9264541 C141.610554,15.5516629 147.901614,22.2877407 155.755877,27.4899373 Z" id="Shape" fill="#D93732"></path>
            <path d="M92.7059576,181.694511 C91.1954664,184.033912 88.0611973,184.70557 85.7375584,183.187368 L39.2899558,152.823317 C36.966317,151.300046 36.2991834,148.144516 37.807157,145.805116 L43.2952749,137.304195 C44.805766,134.967329 47.9375176,134.293136 50.263674,135.813873 L96.7087591,166.182993 C99.0349155,167.70373 99.6995316,170.856725 98.1940754,173.201194 L92.7059576,181.694511 Z" id="Shape" fill="#A9231F"></path>
            <path d="M58.4812058,152.133042 C56.9181243,154.407933 55.0007443,157.290282 53,160.499722 L76.6520283,175 C78.947153,171.967632 80.9531076,169.13447 82.5187942,166.862039 C84.0844808,164.589607 85.9992557,161.707259 88,158.500278 L64.353182,144 C62.052847,147.029909 60.0416822,149.858152 58.4812058,152.133042 Z" id="Shape" fill="#731613"></path>
            <ellipse id="Oval" fill="#D93732" transform="translate(69.000000, 162.000000) rotate(-147.002794) translate(-69.000000, -162.000000) " cx="69" cy="162" rx="9" ry="43"></ellipse>
        </g>
    </g>
</svg>