<?xml version="1.0" encoding="UTF-8"?>
<svg width="113px" height="155px" viewBox="0 0 113 155" version="1.1" xmlns="http://www.w3.org/2000/svg" xmlns:xlink="http://www.w3.org/1999/xlink">
    <!-- Generator: Sketch 51.1 (57501) - http://www.bohemiancoding.com/sketch -->
    <title>speaker-off</title>
    <desc>Created with Sketch.</desc>
    <defs></defs>
    <g id="Page-1" stroke="none" stroke-width="1" fill="none" fill-rule="evenodd">
        <g id="speaker-off" transform="translate(-1.000000, 4.000000)" stroke="#FFFFFF">
            <path d="M101.83373,146.268654 L101.882276,146.309787 L101.833687,146.271229 C101.8337,146.270369 101.833712,146.26951 101.833724,146.268649 L101.83373,146.268654 Z M101.813626,146.25162 C101.820378,146.25645 101.827089,146.261217 101.834091,146.265923 C101.833979,146.249242 101.834091,146.232267 101.834091,146.214998 L101.834091,0.78580578 C101.834091,0.76447051 101.83392,0.74358223 101.834091,0.7231433 C101.824196,0.7296839 101.814723,0.73634628 101.80517,0.74313141 L57.1186434,38.2195373 L17.0177249,38.2195373 C10.0507984,38.2195373 4.5,42.8738817 4.5,48.3118996 L4.5,98.681349 C4.5,104.119367 10.0507984,108.773711 17.0177249,108.773711 L57.5809432,108.773711 L101.813626,146.25162 Z M101.833525,0.71935157 C101.833513,0.71868072 101.833502,0.71801037 101.83349,0.7173405 L101.872623,0.68656189 L101.833525,0.71935157 Z" id="Shape" stroke-width="5"></path>
            <rect id="Path" stroke-width="2" fill="#FFFFFF" fill-rule="nonzero" transform="translate(57.759381, 75.383042) rotate(-50.000000) translate(-57.759381, -75.383042) " x="51.6990458" y="5.64403095" width="12.1206708" height="139.478022" rx="6.0603354"></rect>
        </g>
    </g>
</svg>