<?xml version="1.0" encoding="UTF-8"?>
<svg width="237px" height="157px" viewBox="0 0 237 157" version="1.1" xmlns="http://www.w3.org/2000/svg" xmlns:xlink="http://www.w3.org/1999/xlink">
    <!-- Generator: Sketch 51.1 (57501) - http://www.bohemiancoding.com/sketch -->
    <title>speaker</title>
    <desc>Created with Sketch.</desc>
    <defs></defs>
    <g id="Page-1" stroke="none" stroke-width="1" fill="none" fill-rule="evenodd">
        <g id="speaker" transform="translate(3.000000, 3.000000)" stroke="#FFFFFF">
            <path d="M54.6642353,113.329368 L15.0177249,113.329368 C6.75797619,113.329368 0,107.662805 0,100.737006 L0,50.367557 C0,43.4417577 6.75797619,37.7751947 15.0177249,37.7751947 L54.2090905,37.7751947 L98.2661582,0.826685231 C100.5048,-0.82291423 102.334091,0.0711434933 102.334091,2.8414632 L102.334091,148.270655 C102.334091,151.040975 100.5048,151.935033 98.2661582,150.272841 L54.6642353,113.329368 Z" stroke-width="5"></path>
            <path d="M200.844262,148.081178 C199.759713,148.081178 198.665566,147.722161 197.772972,146.985231 C195.738243,145.312968 195.459908,142.336907 197.158715,140.333971 C230.386223,101.125547 230.386223,48.4350945 197.158715,9.21722304 C195.459908,7.2142867 195.738243,4.22877782 197.772972,2.56596274 C199.798104,0.884252038 202.821404,1.13934299 204.529808,3.16117495 C240.828606,46.0070066 240.828606,103.563083 204.529808,146.380571 C203.579628,147.504861 202.207146,148.081178 200.844262,148.081178" id="Wave-3" stroke-width="3" fill="#FFFFFF"></path>
            <path d="M167.25356,129.009822 C166.159413,129.009822 165.055669,128.641358 164.153478,127.885533 C162.128347,126.203822 161.878804,123.227761 163.587209,121.234272 C187.130559,93.873406 187.130559,55.6664505 163.587209,28.3150321 C161.878804,26.3215436 162.128347,23.3454825 164.153478,21.654324 C166.178609,19.9820611 169.192311,20.2182564 170.919911,22.2022971 C197.544148,53.1533323 197.544148,96.3865243 170.919911,127.337559 C169.960134,128.442954 168.616445,129.009822 167.25356,129.009822" id="Wave-2" stroke-width="3" fill="#FFFFFF"></path>
            <path d="M133.65829,109.827928 C132.53535,109.827928 131.402812,109.440567 130.491023,108.656399 C128.504283,106.927449 128.30273,103.94194 130.059123,101.986243 C144.36941,85.9627523 144.36941,63.5808834 130.059123,47.5573927 C128.30273,45.6016954 128.504283,42.6161865 130.491023,40.8872368 C132.477763,39.1677348 135.501063,39.3661389 137.257457,41.3218362 C154.859782,61.0110783 154.859782,88.5325574 137.257457,108.2218 C136.316875,109.279955 134.992381,109.827928 133.65829,109.827928" id="Wave-1" stroke-width="3" fill="#FFFFFF"></path>
        </g>
    </g>
</svg>