<?xml version="1.0" encoding="UTF-8"?>
<svg width="132px" height="151px" viewBox="0 0 132 151" version="1.1" xmlns="http://www.w3.org/2000/svg" xmlns:xlink="http://www.w3.org/1999/xlink">
    <!-- Generator: Sketch 50.2 (55047) - http://www.bohemiancoding.com/sketch -->
    <title>speaker-off</title>
    <desc>Created with Sketch.</desc>
    <defs>
        <path d="M111.334091,128.99777 L111.334091,148.214998 C111.334091,150.985318 109.5048,151.879375 107.266158,150.217184 L63.6642353,113.273711 L24.0177249,113.273711 C15.7579762,113.273711 9,107.607148 9,100.681349 L9,50.3118996 C9,48.235102 9.60766632,46.271533 10.6812745,44.5400285 L111.334091,128.99777 Z M111.334091,103.604406 L32.8155623,37.7195373 L63.2090905,37.7195373 L107.266158,0.771027813 C109.5048,-0.878571648 111.334091,0.0154860754 111.334091,2.78580578 L111.334091,103.604406 Z M1.23816627,23.9196379 C3.03459442,21.7787382 6.22642929,21.4994889 8.36732899,23.295917 L129.493767,124.933066 C131.634666,126.729494 131.913916,129.921329 130.117488,132.062229 C128.321059,134.203129 125.129225,134.482378 122.988325,132.68595 L1.86188719,31.0488006 C-0.279012512,29.2523725 -0.558261879,26.0605376 1.23816627,23.9196379 Z" id="path-1"></path>
    </defs>
    <g id="Page-1" stroke="none" stroke-width="1" fill="none" fill-rule="evenodd">
        <g id="speaker-off" fill="#FFFFFF">
            <use fill-opacity="0.349999994" xlink:href="#path-1"></use>
            <use fill-opacity="0.599999964" style="mix-blend-mode: overlay;" xlink:href="#path-1"></use>
        </g>
    </g>
</svg>