<?xml version="1.0" encoding="UTF-8"?>
<svg width="232px" height="151px" viewBox="0 0 232 151" version="1.1" xmlns="http://www.w3.org/2000/svg" xmlns:xlink="http://www.w3.org/1999/xlink">
    <!-- Generator: Sketch 50.2 (55047) - http://www.bohemiancoding.com/sketch -->
    <title>speaker</title>
    <desc>Created with Sketch.</desc>
    <defs>
        <path d="M54.6642353,113.273711 L15.0177249,113.273711 C6.75797619,113.273711 0,107.607148 0,100.681349 L0,50.3118996 C0,43.3861003 6.75797619,37.7195373 15.0177249,37.7195373 L54.2090905,37.7195373 L98.2661582,0.771027813 C100.5048,-0.878571648 102.334091,0.0154860754 102.334091,2.78580578 L102.334091,148.214998 C102.334091,150.985318 100.5048,151.879375 98.2661582,150.217184 L54.6642353,113.273711 Z M200.844262,148.02552 C199.759713,148.02552 198.665566,147.666503 197.772972,146.929574 C195.738243,145.257311 195.459908,142.28125 197.158715,140.278313 C230.386223,101.06989 230.386223,48.3794371 197.158715,9.16156563 C195.459908,7.15862928 195.738243,4.1731204 197.772972,2.51030532 C199.798104,0.82859462 202.821404,1.08368557 204.529808,3.10551754 C240.828606,45.9513492 240.828606,103.507426 204.529808,146.324914 C203.579628,147.449204 202.207146,148.02552 200.844262,148.02552 Z M167.25356,128.954165 C166.159413,128.954165 165.055669,128.5857 164.153478,127.829875 C162.128347,126.148164 161.878804,123.172103 163.587209,121.178615 C187.130559,93.8177486 187.130559,55.6107931 163.587209,28.2593747 C161.878804,26.2658862 162.128347,23.2898251 164.153478,21.5986666 C166.178609,19.9264037 169.192311,20.162599 170.919911,22.1466397 C197.544148,53.0976749 197.544148,96.3308669 170.919911,127.281902 C169.960134,128.387296 168.616445,128.954165 167.25356,128.954165 Z M133.65829,109.77227 C132.53535,109.77227 131.402812,109.38491 130.491023,108.600742 C128.504283,106.871792 128.30273,103.886283 130.059123,101.930586 C144.36941,85.9070949 144.36941,63.525226 130.059123,47.5017353 C128.30273,45.546038 128.504283,42.5605291 130.491023,40.8315794 C132.477763,39.1120774 135.501063,39.3104815 137.257457,41.2661788 C154.859782,60.9554209 154.859782,88.4769 137.257457,108.166142 C136.316875,109.224297 134.992381,109.77227 133.65829,109.77227 Z" id="path-1"></path>
    </defs>
    <g id="Page-1" stroke="none" stroke-width="1" fill="none" fill-rule="evenodd">
        <g id="speaker" fill="#FFFFFF">
            <use fill-opacity="0.349999994" xlink:href="#path-1"></use>
            <use fill-opacity="0.599999964" style="mix-blend-mode: overlay;" xlink:href="#path-1"></use>
        </g>
    </g>
</svg>