<?xml version="1.0" encoding="UTF-8"?>
<svg width="110px" height="151px" viewBox="0 0 110 151" version="1.1" xmlns="http://www.w3.org/2000/svg" xmlns:xlink="http://www.w3.org/1999/xlink">
    <!-- Generator: Sketch 50.2 (55047) - http://www.bohemiancoding.com/sketch -->
    <title>speaker-off</title>
    <desc>Created with Sketch.</desc>
    <defs>
        <path d="M102.334091,128.99777 L102.334091,148.214998 C102.334091,150.985318 100.5048,151.879375 98.2661582,150.217184 L54.6642353,113.273711 L15.0177249,113.273711 C6.75797619,113.273711 -4.54747351e-13,107.607148 -4.54747351e-13,100.681349 L-4.54747351e-13,50.3118996 C-4.54747351e-13,48.235102 0.607666322,46.271533 1.68127446,44.5400285 L102.334091,128.99777 Z M102.334091,103.604406 L23.8155623,37.7195373 L54.2090905,37.7195373 L98.2661582,0.771027813 C100.5048,-0.878571648 102.334091,0.0154860754 102.334091,2.78580578 L102.334091,103.604406 Z M3.02904848,32.9742632 C4.82547663,30.8333635 8.0173115,30.5541141 10.1582112,32.3505423 L107.719602,114.21427 C109.860502,116.010698 110.139751,119.202533 108.343323,121.343432 C106.546895,123.484332 103.35506,123.763581 101.214161,121.967153 L3.6527694,40.1034259 C1.5118697,38.3069978 1.23262033,35.1151629 3.02904848,32.9742632 Z" id="path-1"></path>
    </defs>
    <g id="Page-1" stroke="none" stroke-width="1" fill="none" fill-rule="evenodd">
        <g id="speaker-off" fill="#FFFFFF">
            <use fill-opacity="0.349999994" xlink:href="#path-1"></use>
            <use fill-opacity="0.599999964" style="mix-blend-mode: overlay;" xlink:href="#path-1"></use>
        </g>
    </g>
</svg>