<?xml version="1.0" encoding="UTF-8"?>
<svg width="61px" height="262px" viewBox="0 0 61 262" version="1.1" xmlns="http://www.w3.org/2000/svg" xmlns:xlink="http://www.w3.org/1999/xlink">
    <!-- Generator: Sketch 51 (57462) - http://www.bohemiancoding.com/sketch -->
    <title>spotlight-lever</title>
    <desc>Created with Sketch.</desc>
    <defs></defs>
    <g id="Page-1" stroke="none" stroke-width="1" fill="none" fill-rule="evenodd">
        <g id="spotlight-lever" transform="translate(-18.000000, 0.000000)" fill-rule="nonzero">
            <g id="Group" transform="translate(28.000000, 0.000000)" fill="#E9C12E">
                <path d="M33.8695652,131 L40.9238045,246.397385 C40.9742531,246.808169 41,247.223897 41,247.643836 C41,255.572526 31.8218374,262 20.5,262 C9.17816263,262 0,255.572526 0,247.643836 C0,247.223897 0.025746886,246.808169 0.0761954906,246.397385 L7.13043478,131 L0.0761954906,15.6026149 C0.025746886,15.1918306 0,14.7761031 0,14.3561644 C0,6.42747373 9.17816263,0 20.5,0 C31.8218374,0 41,6.42747373 41,14.3561644 C41,14.7761031 40.9742531,15.1918306 40.9238045,15.6026149 L33.8695652,131 Z" id="Combined-Shape"></path>
            </g>
            <path d="M15.0470831,84.580765 L53.6823324,25.8826276 C56.6527867,22.0986769 58.0357305,19.01746 57.831164,16.6389767 C57.6265975,14.2604934 58.5219735,14.2604934 60.517292,16.6389767 C61.5093867,18.2442409 59.2310668,23.2693698 53.6823324,31.7143634 C48.133598,40.1593569 36.0604635,58.294232 17.4629289,86.1189886 L15.0470831,84.580765 Z" id="Path-20" fill-opacity="0.47" fill="#FAE7A1" transform="translate(37.895046, 50.487051) scale(1, -1) rotate(150.000000) translate(-37.895046, -50.487051) "></path>
            <circle id="Oval-17-Copy" fill="#202020" cx="48.5" cy="131.5" r="30.5"></circle>
        </g>
    </g>
</svg>