<?xml version="1.0" encoding="UTF-8"?>
<svg width="199px" height="188px" viewBox="0 0 199 188" version="1.1" xmlns="http://www.w3.org/2000/svg" xmlns:xlink="http://www.w3.org/1999/xlink">
    <!-- Generator: Sketch 51 (57462) - http://www.bohemiancoding.com/sketch -->
    <title>spotlight</title>
    <desc>Created with Sketch.</desc>
    <defs></defs>
    <g id="Page-1" stroke="none" stroke-width="1" fill="none" fill-rule="evenodd">
        <g id="spotlight" transform="translate(0.000000, -9.000000)">
            <path d="M108.745573,250 C128.791668,250 145.04224,205.67619 145.04224,151 C145.04224,96.3238098 128.791668,52 108.745573,52 C88.6994767,52 53.0422398,46.8261719 53.0422398,151 C53.0422398,255.173828 88.6994767,250 108.745573,250 Z" id="Oval-6" fill="#1C1C1C" transform="translate(99.042240, 151.000000) rotate(270.000000) translate(-99.042240, -151.000000) "></path>
            <rect id="Rectangle-14" fill="#1C1C1C" x="0" y="40" width="198" height="115"></rect>
            <rect id="Rectangle-6" fill="#1C1C1C" fill-rule="nonzero" x="18" y="75" width="11" height="94"></rect>
            <rect id="Rectangle-6-Copy" fill="#1C1C1C" fill-rule="nonzero" x="164" y="75" width="11" height="94"></rect>
            <ellipse id="Oval-10" fill="#383838" cx="99" cy="41.5" rx="99" ry="32.5"></ellipse>
            <path d="M5,167 L5,158 L5.01329994,158 C5.86836044,144.325796 47.8440393,133.310811 99.5,133.310811 C151.155961,133.310811 193.13164,144.325796 193.9867,158 L194,158 L194,167 L193.9867,167 C193.13164,153.325796 151.155961,142.310811 99.5,142.310811 C47.8440393,142.310811 5.86836044,153.325796 5.01329994,167 L5,167 Z" id="Combined-Shape-Copy-4" fill="#B9B9B9" transform="translate(99.500000, 150.155405) scale(1, -1) translate(-99.500000, -150.155405) "></path>
            <path d="M5,102 L5,93 L5.01329994,93 C5.86836044,79.3257956 47.8440393,68.3108108 99.5,68.3108108 C151.155961,68.3108108 193.13164,79.3257956 193.9867,93 L194,93 L194,102 L193.9867,102 C193.13164,88.3257956 151.155961,77.3108108 99.5,77.3108108 C47.8440393,77.3108108 5.86836044,88.3257956 5.01329994,102 L5,102 Z" id="Combined-Shape-Copy-4" fill="#B9B9B9" transform="translate(99.500000, 85.155405) scale(1, -1) translate(-99.500000, -85.155405) "></path>
            <path d="M5,123.666667 L5,114.666667 L5.01329994,114.666667 C5.86836044,100.992462 47.8440393,89.9774775 99.5,89.9774775 C151.155961,89.9774775 193.13164,100.992462 193.9867,114.666667 L194,114.666667 L194,123.666667 L193.9867,123.666667 C193.13164,109.992462 151.155961,98.9774775 99.5,98.9774775 C47.8440393,98.9774775 5.86836044,109.992462 5.01329994,123.666667 L5,123.666667 Z" id="Combined-Shape-Copy-4" fill="#B9B9B9" transform="translate(99.500000, 106.822072) scale(1, -1) translate(-99.500000, -106.822072) "></path>
            <path d="M5,145.333333 L5,136.333333 L5.01329994,136.333333 C5.86836044,122.659129 47.8440393,111.644144 99.5,111.644144 C151.155961,111.644144 193.13164,122.659129 193.9867,136.333333 L194,136.333333 L194,145.333333 L193.9867,145.333333 C193.13164,131.659129 151.155961,120.644144 99.5,120.644144 C47.8440393,120.644144 5.86836044,131.659129 5.01329994,145.333333 L5,145.333333 Z" id="Combined-Shape-Copy-4" fill="#B9B9B9" transform="translate(99.500000, 128.488739) scale(1, -1) translate(-99.500000, -128.488739) "></path>
        </g>
    </g>
</svg>