<?xml version="1.0" encoding="UTF-8"?>
<svg width="199px" height="188px" viewBox="0 0 199 188" version="1.1" xmlns="http://www.w3.org/2000/svg" xmlns:xlink="http://www.w3.org/1999/xlink">
    <!-- Generator: Sketch 51 (57462) - http://www.bohemiancoding.com/sketch -->
    <title>spotlight</title>
    <desc>Created with Sketch.</desc>
    <defs></defs>
    <g id="Page-1" stroke="none" stroke-width="1" fill="none" fill-rule="evenodd">
        <g id="spotlight">
            <path d="M108.745573,241 C128.791668,241 145.04224,196.67619 145.04224,142 C145.04224,87.3238098 128.791668,43 108.745573,43 C88.6994767,43 53.0422398,37.8261719 53.0422398,142 C53.0422398,246.173828 88.6994767,241 108.745573,241 Z" id="Oval-6" fill="#1C1C1C" transform="translate(99.042240, 142.000000) rotate(270.000000) translate(-99.042240, -142.000000) "></path>
            <rect id="Rectangle-14" fill="#1C1C1C" x="0" y="31" width="198" height="115"></rect>
            <ellipse id="Oval-10" fill="#383838" cx="99" cy="32.5" rx="99" ry="32.5"></ellipse>
            <path d="M5,158 L5,149 L5.01329994,149 C5.86836044,135.325796 47.8440393,124.310811 99.5,124.310811 C151.155961,124.310811 193.13164,135.325796 193.9867,149 L194,149 L194,158 L193.9867,158 C193.13164,144.325796 151.155961,133.310811 99.5,133.310811 C47.8440393,133.310811 5.86836044,144.325796 5.01329994,158 L5,158 Z" id="Combined-Shape-Copy-4" fill="#D8D8D8" transform="translate(99.500000, 141.155405) scale(1, -1) translate(-99.500000, -141.155405) "></path>
            <path d="M5,93 L5,84 L5.01329994,84 C5.86836044,70.3257956 47.8440393,59.3108108 99.5,59.3108108 C151.155961,59.3108108 193.13164,70.3257956 193.9867,84 L194,84 L194,93 L193.9867,93 C193.13164,79.3257956 151.155961,68.3108108 99.5,68.3108108 C47.8440393,68.3108108 5.86836044,79.3257956 5.01329994,93 L5,93 Z" id="Combined-Shape-Copy-4" fill="#D8D8D8" transform="translate(99.500000, 76.155405) scale(1, -1) translate(-99.500000, -76.155405) "></path>
            <path d="M5,114.666667 L5,105.666667 L5.01329994,105.666667 C5.86836044,91.9924622 47.8440393,80.9774775 99.5,80.9774775 C151.155961,80.9774775 193.13164,91.9924622 193.9867,105.666667 L194,105.666667 L194,114.666667 L193.9867,114.666667 C193.13164,100.992462 151.155961,89.9774775 99.5,89.9774775 C47.8440393,89.9774775 5.86836044,100.992462 5.01329994,114.666667 L5,114.666667 Z" id="Combined-Shape-Copy-4" fill="#D8D8D8" transform="translate(99.500000, 97.822072) scale(1, -1) translate(-99.500000, -97.822072) "></path>
            <path d="M5,136.333333 L5,127.333333 L5.01329994,127.333333 C5.86836044,113.659129 47.8440393,102.644144 99.5,102.644144 C151.155961,102.644144 193.13164,113.659129 193.9867,127.333333 L194,127.333333 L194,136.333333 L193.9867,136.333333 C193.13164,122.659129 151.155961,111.644144 99.5,111.644144 C47.8440393,111.644144 5.86836044,122.659129 5.01329994,136.333333 L5,136.333333 Z" id="Combined-Shape-Copy-4" fill="#D8D8D8" transform="translate(99.500000, 119.488739) scale(1, -1) translate(-99.500000, -119.488739) "></path>
            <rect id="Rectangle-6" fill="#1C1C1C" fill-rule="nonzero" x="18" y="66" width="11" height="94"></rect>
            <rect id="Rectangle-6-Copy" fill="#1C1C1C" fill-rule="nonzero" x="164" y="66" width="11" height="94"></rect>
        </g>
    </g>
</svg>