<?xml version="1.0" encoding="UTF-8"?>
<svg width="112px" height="57px" viewBox="0 0 112 57" version="1.1" xmlns="http://www.w3.org/2000/svg" xmlns:xlink="http://www.w3.org/1999/xlink">
    <!-- Generator: Sketch 50.2 (55047) - http://www.bohemiancoding.com/sketch -->
    <title>yolk</title>
    <desc>Created with Sketch.</desc>
    <defs></defs>
    <g id="Page-1" stroke="none" stroke-width="1" fill="none" fill-rule="evenodd">
        <g id="yolk">
            <path d="M0.0582756664,38.0060318 C0.972335845,16.9073462 25.6868321,0 56.0410808,0 C85.8272136,0 110.182728,16.2803866 111.94767,36.8258588 C112.041918,39.305951 112.240814,41.5637453 110.110855,43.4288953 C99.3385655,52.8619105 78.009534,57 55.5822002,57 C34.332349,57 19.3935534,54.8142386 5.2310638,47.3191879 C-1.12507192,43.9554037 0.125129113,39.0554031 0.0582756664,38.0060318 Z" id="Combined-Shape" fill="#FFC500"></path>
            <path d="M107.128372,23 C109.847798,27.2383897 111.529939,31.875742 111.947635,36.7525291 C112.041946,39.241636 112.240974,41.507637 110.109599,43.3795665 C99.3301489,52.8468692 77.9869393,57 55.5446972,57 C34.2807206,57 19.3319946,54.8062937 5.16009065,47.2839998 C1.32923158,45.2506211 0.259541457,42.6579267 5.78291581e-12,40.6871985 C0.68271622,41.3187083 1.5392594,41.9322933 2.61253439,42.5019761 C16.7844383,50.02427 31.7331643,52.2179763 52.997141,52.2179763 C75.4393831,52.2179763 96.7825927,48.0648455 107.562043,38.5975428 C109.693418,36.7256133 109.49439,34.4596123 109.400079,31.9705054 C109.134511,28.8698833 108.357815,25.8660482 107.128372,23 Z" id="Combined-Shape" fill-opacity="0.200000018" fill="#FC8700"></path>
            <ellipse id="Oval-2" fill="#FFE700" transform="translate(39.500000, 9.000000) rotate(-12.000000) translate(-39.500000, -9.000000) " cx="39.5" cy="9" rx="5.5" ry="2"></ellipse>
            <ellipse id="Oval-2-Copy" fill="#FFE700" transform="translate(26.000000, 14.500000) rotate(-30.000000) translate(-26.000000, -14.500000) " cx="26" cy="14.5" rx="7" ry="2.5"></ellipse>
        </g>
    </g>
</svg>